<svg width="72" height="90" viewBox="0 0 72 90" fill="none" xmlns="http://www.w3.org/2000/svg">
<rect x="6" y="24" width="60" height="58" fill="#A2AED3"/>
<rect x="6" y="24" width="60" height="53" fill="#C6CEE5"/>
<rect x="6" y="17" width="60" height="55" fill="white"/>
<rect x="6" y="17" width="60" height="17" fill="#A2AED3"/>
<path d="M24.2519 57.208V56.728C24.2519 56.2 24.5159 55.936 25.0439 55.936H27.9959V44.992C27.9959 44.464 28.0199 43.96 28.0199 43.96H27.9719C27.9719 43.96 27.7559 44.344 27.2279 44.872L26.1479 45.928C25.7639 46.288 25.3799 46.288 25.0439 45.904L24.7079 45.568C24.3239 45.184 24.3479 44.8 24.7079 44.44L27.7799 41.44C28.0679 41.176 28.3559 41.056 28.7399 41.056H29.5079C30.0359 41.056 30.2999 41.32 30.2999 41.848V55.936H33.2279C33.7319 55.936 34.0199 56.2 34.0199 56.728V57.208C34.0199 57.736 33.7319 58 33.2279 58H25.0439C24.5159 58 24.2519 57.736 24.2519 57.208ZM35.5739 57.208V56.704C35.5739 50.656 43.8779 49.792 43.8779 45.808C43.8779 44.128 42.6059 43 40.8299 43C39.2939 43 38.2859 43.984 37.8299 44.56C37.4939 44.92 37.1099 45.064 36.7019 44.728L36.2699 44.392C35.8619 44.08 35.7659 43.72 36.0539 43.312C36.7019 42.4 38.2619 40.768 40.9979 40.768C44.0939 40.768 46.3499 42.712 46.3499 45.64C46.3499 51.208 38.2379 52.072 38.1659 55.936H45.8219C46.3259 55.936 46.6139 56.2 46.6139 56.728V57.208C46.6139 57.736 46.3259 58 45.8219 58H36.4139C35.9339 58 35.5739 57.736 35.5739 57.208Z" fill="#475DA7"/>
<path d="M29.0139 34V27.41H32.6039V27.81H29.4739V30.43H32.1239V30.83H29.4739V34H29.0139ZM35.4421 34.12C35.0288 34.12 34.6555 34.02 34.3221 33.82C33.9888 33.62 33.7221 33.3333 33.5221 32.96C33.3221 32.58 33.2221 32.13 33.2221 31.61C33.2221 31.0833 33.3221 30.6333 33.5221 30.26C33.7221 29.88 33.9788 29.59 34.2921 29.39C34.6121 29.1833 34.9521 29.08 35.3121 29.08C35.6921 29.08 36.0188 29.1667 36.2921 29.34C36.5721 29.5133 36.7855 29.7667 36.9321 30.1C37.0788 30.4267 37.1521 30.8267 37.1521 31.3C37.1521 31.3533 37.1488 31.4133 37.1421 31.48C37.1421 31.54 37.1355 31.6033 37.1221 31.67H33.4921V31.29H36.7321C36.7321 30.6767 36.6055 30.22 36.3521 29.92C36.0988 29.6133 35.7555 29.46 35.3221 29.46C35.0555 29.46 34.7955 29.5367 34.5421 29.69C34.2888 29.8433 34.0788 30.08 33.9121 30.4C33.7521 30.7133 33.6721 31.11 33.6721 31.59C33.6721 32.03 33.7521 32.4133 33.9121 32.74C34.0721 33.06 34.2888 33.3067 34.5621 33.48C34.8355 33.6467 35.1421 33.73 35.4821 33.73C35.7421 33.73 35.9788 33.6967 36.1921 33.63C36.4121 33.5567 36.6055 33.46 36.7721 33.34L36.9521 33.65C36.7655 33.7767 36.5555 33.8867 36.3221 33.98C36.0888 34.0733 35.7955 34.12 35.4421 34.12ZM40.3361 34.12C40.1095 34.12 39.8695 34.0667 39.6161 33.96C39.3695 33.8467 39.1295 33.6967 38.8961 33.51H38.8761L38.8261 34H38.4561V26.81H38.8961V28.89L38.8761 29.83C39.1228 29.6233 39.3861 29.4467 39.6661 29.3C39.9528 29.1533 40.2395 29.08 40.5261 29.08C40.9595 29.08 41.3161 29.18 41.5961 29.38C41.8828 29.58 42.0961 29.8633 42.2361 30.23C42.3828 30.5967 42.4561 31.03 42.4561 31.53C42.4561 32.07 42.3561 32.5333 42.1561 32.92C41.9628 33.3067 41.7061 33.6033 41.3861 33.81C41.0661 34.0167 40.7161 34.12 40.3361 34.12ZM40.3161 33.73C40.6428 33.73 40.9295 33.6367 41.1761 33.45C41.4295 33.2633 41.6261 33.0067 41.7661 32.68C41.9128 32.3467 41.9861 31.9633 41.9861 31.53C41.9861 31.1367 41.9361 30.7867 41.8361 30.48C41.7361 30.1667 41.5728 29.92 41.3461 29.74C41.1261 29.56 40.8328 29.47 40.4661 29.47C40.2261 29.47 39.9761 29.5367 39.7161 29.67C39.4561 29.8033 39.1828 30 38.8961 30.26V33.11C39.1628 33.3367 39.4195 33.4967 39.6661 33.59C39.9195 33.6833 40.1361 33.73 40.3161 33.73Z" fill="white"/>
<rect x="14" y="11" width="5" height="14" rx="2.5" fill="#C6CEE5"/>
<rect x="27" y="11" width="5" height="14" rx="2.5" fill="#C6CEE5"/>
<rect x="40" y="11" width="5" height="14" rx="2.5" fill="#C6CEE5"/>
<rect x="53" y="11" width="5" height="14" rx="2.5" fill="#C6CEE5"/>
</svg>
