<svg width="72" height="90" viewBox="0 0 72 90" fill="none" xmlns="http://www.w3.org/2000/svg">
<rect x="6" y="24" width="60" height="58" fill="#A2AED3"/>
<rect x="6" y="24" width="60" height="53" fill="#C6CEE5"/>
<rect x="6" y="17" width="60" height="55" fill="white"/>
<rect x="6" y="17" width="60" height="17" fill="#A2AED3"/>
<rect x="14" y="11" width="5" height="14" rx="2.5" fill="#C6CEE5"/>
<rect x="27" y="11" width="5" height="14" rx="2.5" fill="#C6CEE5"/>
<rect x="40" y="11" width="5" height="14" rx="2.5" fill="#C6CEE5"/>
<rect x="53" y="11" width="5" height="14" rx="2.5" fill="#C6CEE5"/>
<rect x="14" y="37" width="8" height="8" fill="#A2AED3"/>
<rect x="26" y="37" width="8" height="8" fill="#A2AED3"/>
<rect x="38" y="37" width="8" height="8" fill="#A2AED3"/>
<rect x="50" y="37" width="8" height="8" fill="#A2AED3"/>
<rect x="14" y="49" width="8" height="8" fill="#A2AED3"/>
<rect x="26" y="49" width="8" height="8" fill="#A2AED3"/>
<rect x="38" y="49" width="8" height="8" fill="#A2AED3"/>
<rect x="50" y="49" width="8" height="8" fill="#A2AED3"/>
<rect x="14" y="61" width="8" height="8" fill="#A2AED3"/>
<rect x="26" y="61" width="8" height="8" fill="#A2AED3"/>
<rect x="38" y="61" width="8" height="8" fill="#A2AED3"/>
<rect x="50" y="61" width="8" height="8" fill="#A2AED3"/>
</svg>
