<svg width="64" height="64" viewBox="0 0 64 64" fill="none" xmlns="http://www.w3.org/2000/svg">
<path opacity="0.5" d="M33.5974 21.8335L33.5958 21.8363L29.8618 28.3L16 28.3C15.0187 28.3 14.0776 28.6898 13.3837 29.3837C12.6898 30.0776 12.3 31.0187 12.3 32C12.3 32.9813 12.6898 33.9224 13.3837 34.6163C14.0776 35.3102 15.0187 35.7 16 35.7L32 35.7L32.0014 35.7C32.6501 35.6981 33.287 35.5265 33.8487 35.2021C34.4105 34.8778 34.8775 34.4121 35.2035 33.8512L35.2042 33.85L40.0042 25.5364L40.0059 25.5335C40.4888 24.6842 40.6161 23.6783 40.3601 22.7354C40.1041 21.7924 39.4856 20.9891 38.6394 20.5005C37.7933 20.012 36.7882 19.878 35.8437 20.1277C34.8991 20.3774 34.0916 20.9906 33.5974 21.8335ZM49.5005 58.1913C44.3203 61.6526 38.2301 63.5 32 63.5C23.6457 63.5 15.6335 60.1813 9.72613 54.2739C6.80109 51.3488 4.48082 47.8763 2.89779 44.0545C1.31477 40.2328 0.499999 36.1366 0.499999 32C0.499998 25.7699 2.34744 19.6797 5.8087 14.4995C9.26997 9.3194 14.1896 5.28196 19.9455 2.8978C25.7013 0.513636 32.0349 -0.11017 38.1453 1.10526C44.2557 2.3207 49.8685 5.32079 54.2739 9.72614C58.6792 14.1315 61.6793 19.7443 62.8947 25.8547C64.1102 31.9651 63.4864 38.2987 61.1022 44.0545C58.718 49.8104 54.6806 54.73 49.5005 58.1913Z" fill="white" stroke="#A2AED3"/>
</svg>
