<svg width="63" height="63" viewBox="0 0 63 63" fill="none" xmlns="http://www.w3.org/2000/svg">
<g clip-path="url(#clip0_1513_26179)">
<path d="M47.2506 4.22066C52.0017 6.96385 55.954 10.9003 58.7161 15.6404C61.4783 20.3804 62.9547 25.7596 62.999 31.2456C63.0433 36.7315 61.654 42.1339 58.9688 46.9179C56.2835 51.702 52.3954 55.7018 47.6892 58.5214C42.983 61.3409 37.6221 62.8825 32.137 62.9936C26.6519 63.1046 21.233 61.7811 16.4166 59.1543C11.6002 56.5274 7.55339 52.6882 4.67676 48.0167C1.80013 43.3453 0.193442 38.0035 0.0157506 32.5203L0 31.4997L0.0157506 30.4791C0.192162 25.039 1.7752 19.7374 4.61052 15.0913C7.44585 10.4451 11.4367 6.61293 16.194 3.96829C20.9513 1.32365 26.3127 -0.043189 31.7556 0.00104027C37.1984 0.0452695 42.5369 1.49905 47.2506 4.22066ZM31.5004 12.5997C30.7288 12.5998 29.9842 12.883 29.4076 13.3957C28.831 13.9084 28.4627 14.6149 28.3724 15.3811L28.3503 15.7497V31.4997L28.3787 31.9123C28.4505 32.4588 28.6645 32.9769 28.9993 33.4149L29.2733 33.7299L38.7234 43.1799L39.0195 43.4382C39.572 43.8668 40.2513 44.0994 40.9505 44.0994C41.6497 44.0994 42.329 43.8668 42.8815 43.4382L43.1776 43.1767L43.439 42.8806C43.8676 42.3282 44.1003 41.6488 44.1003 40.9497C44.1003 40.2505 43.8676 39.5711 43.439 39.0187L43.1776 38.7226L34.6504 30.1924V15.7497L34.6284 15.3811C34.5381 14.6149 34.1698 13.9084 33.5932 13.3957C33.0166 12.883 32.2719 12.5998 31.5004 12.5997Z" fill="white"/>
</g>
<defs>
<clipPath id="clip0_1513_26179">
<rect width="63" height="63" fill="white"/>
</clipPath>
</defs>
</svg>
