<svg width="71" height="71" viewBox="0 0 71 71" fill="none" xmlns="http://www.w3.org/2000/svg">
<g filter="url(#filter0_d_15398_42800)">
<path d="M39.1979 31.2103C39.1979 31.2103 38.0738 17.1287 44.0792 16.3299C50.0846 15.5312 65.7342 45.4399 63.8408 57.2732C63.8408 57.2732 61.8588 72.1537 41.2983 61.1191C41.2983 61.1191 36.5946 55.4687 39.1388 30.7962" fill="white"/>
<path d="M31.6245 31.2103C31.6245 31.2103 32.7487 17.1287 26.7433 16.3299C20.7379 15.5312 5.0883 45.4399 7.01122 57.2732C7.01122 57.2732 8.9933 72.1537 29.5537 61.1191C29.5537 61.1191 34.2575 55.4687 31.7133 30.7962" fill="white"/>
</g>
<g filter="url(#filter1_d_15398_42800)">
<path d="M51.2087 44.0793L42.2746 38.488L54.0192 36.8313C54.9362 36.713 55.8533 35.7072 56.0604 34.583C56.2675 33.4884 55.6758 32.6897 54.7587 32.808L37.1862 35.293H37.1271C36.9496 35.3226 36.7425 35.4113 36.565 35.5001C36.565 35.5001 36.5058 35.5001 36.5058 35.5297C36.3875 35.5888 36.2987 35.6184 36.1804 35.7072C35.2337 36.4468 34.7308 37.8076 35.0858 38.7247L40.7954 53.8418C41.1504 54.7588 42.1858 54.8772 43.1325 54.1376C44.0792 53.398 44.5821 52.0372 44.2271 51.1201L40.8546 42.1268L49.1379 47.3334C49.7592 47.718 50.7354 47.3038 51.3271 46.3868C51.9187 45.4697 51.8596 44.4047 51.2383 44.0201L51.2087 44.0793Z" fill="#A2AED3"/>
<path d="M36.21 4.7334H34.5829C33.5045 4.7334 32.6304 5.60756 32.6304 6.6859V37.2455C32.6304 38.3238 33.5045 39.198 34.5829 39.198H36.21C37.2883 39.198 38.1625 38.3238 38.1625 37.2455V6.6859C38.1625 5.60756 37.2883 4.7334 36.21 4.7334Z" fill="#A2AED3"/>
<path d="M20.3532 45.2921L28.9324 39.198L17.7203 39.0205C16.8328 39.0205 15.9749 38.1921 15.7678 37.2159C15.5903 36.2396 16.1524 35.4705 17.0399 35.4705L33.8432 35.7071C33.8432 35.7071 33.8728 35.7071 33.9024 35.7071C34.0799 35.7071 34.2574 35.7663 34.4349 35.8255C34.4349 35.8255 34.4645 35.8255 34.4941 35.8255C34.5828 35.855 34.7011 35.8846 34.7899 35.9438C35.6774 36.5059 36.1507 37.6892 35.7957 38.5471L30.2045 52.9246C29.8791 53.7825 28.8732 54.0192 27.9561 53.4571C27.0391 52.895 26.5953 51.7117 26.9503 50.8538L30.2636 42.3338L22.2761 48.0138C21.6845 48.428 20.7378 48.1617 20.2053 47.3925C19.6728 46.6234 19.7024 45.6471 20.3236 45.233L20.3532 45.2921Z" fill="#A2AED3"/>
</g>
<defs>
<filter id="filter0_d_15398_42800" x="4.84863" y="14.3142" width="63.1501" height="54.8782" filterUnits="userSpaceOnUse" color-interpolation-filters="sRGB">
<feFlood flood-opacity="0" result="BackgroundImageFix"/>
<feColorMatrix in="SourceAlpha" type="matrix" values="0 0 0 0 0 0 0 0 0 0 0 0 0 0 0 0 0 0 127 0" result="hardAlpha"/>
<feOffset dx="1" dy="1"/>
<feGaussianBlur stdDeviation="1.5"/>
<feColorMatrix type="matrix" values="0 0 0 0 0 0 0 0 0 0 0 0 0 0 0 0 0 0 0.0917013 0"/>
<feBlend mode="normal" in2="BackgroundImageFix" result="effect1_dropShadow_15398_42800"/>
<feBlend mode="normal" in="SourceGraphic" in2="effect1_dropShadow_15398_42800" result="shape"/>
</filter>
<filter id="filter1_d_15398_42800" x="13.7351" y="2.7334" width="46.3667" height="55.8872" filterUnits="userSpaceOnUse" color-interpolation-filters="sRGB">
<feFlood flood-opacity="0" result="BackgroundImageFix"/>
<feColorMatrix in="SourceAlpha" type="matrix" values="0 0 0 0 0 0 0 0 0 0 0 0 0 0 0 0 0 0 127 0" result="hardAlpha"/>
<feOffset dx="1" dy="1"/>
<feGaussianBlur stdDeviation="1.5"/>
<feColorMatrix type="matrix" values="0 0 0 0 0 0 0 0 0 0 0 0 0 0 0 0 0 0 0.0917013 0"/>
<feBlend mode="normal" in2="BackgroundImageFix" result="effect1_dropShadow_15398_42800"/>
<feBlend mode="normal" in="SourceGraphic" in2="effect1_dropShadow_15398_42800" result="shape"/>
</filter>
</defs>
</svg>
