<svg width="111" height="48" viewBox="0 0 111 48" fill="none" xmlns="http://www.w3.org/2000/svg">
<g id="gateway_main_white.325274ee">
<path id="Path" d="M0.474301 15.3179C0.459006 15.2057 0.497163 15.0927 0.577755 15.0118C0.658347 14.9308 0.772403 14.8907 0.886993 14.9032H1.36135C1.47594 14.8907 1.59 14.9308 1.67059 15.0118C1.75118 15.0927 1.78934 15.2057 1.77404 15.3179V17.8671H5.02815V15.3179C5.01255 15.2048 5.05129 15.0909 5.13303 15.0097C5.21476 14.9285 5.33022 14.8891 5.44558 14.9032H5.91994C6.03453 14.8907 6.14859 14.9308 6.22918 15.0118C6.30977 15.0927 6.34793 15.2057 6.33263 15.3179V21.4741C6.34992 21.5867 6.31243 21.7009 6.23135 21.7823C6.15028 21.8638 6.035 21.9032 5.91994 21.8888H5.44558C5.32977 21.9049 5.21305 21.8662 5.13081 21.7845C5.04858 21.7028 5.01051 21.5877 5.02815 21.4741V18.9576H1.75981V21.4741C1.7771 21.5867 1.73961 21.7009 1.65853 21.7823C1.57746 21.8638 1.46218 21.9032 1.34712 21.8888H0.872763C0.757708 21.9032 0.642429 21.8638 0.561351 21.7823C0.480273 21.7009 0.442781 21.5867 0.46007 21.4741L0.474301 15.3179Z" fill="white"/>
<path id="Shape" fill-rule="evenodd" clip-rule="evenodd" d="M12.1009 19.163C12.1009 17.7882 11.2897 16.7723 9.83816 16.7723C9.12813 16.7498 8.44145 17.0229 7.94732 17.5243C7.45319 18.0257 7.19756 18.7088 7.24342 19.4053C7.22807 20.1188 7.51509 20.8064 8.03588 21.3039C8.55668 21.8014 9.26443 22.064 9.98996 22.029C10.6035 22.0269 11.2038 21.854 11.7214 21.5303C11.8199 21.481 11.892 21.3923 11.9193 21.287C11.9465 21.1817 11.9263 21.07 11.8637 20.9804L11.7403 20.78C11.6123 20.5564 11.432 20.5237 11.1806 20.6449C10.8503 20.8484 10.4699 20.9596 10.0801 20.9665C9.68727 20.9841 9.30371 20.846 9.01559 20.5831C8.72746 20.3202 8.55895 19.9546 8.54791 19.5684H11.6834C11.9072 19.557 12.0867 19.3826 12.1009 19.163ZM10.5775 18.042C10.7735 18.2559 10.8685 18.5411 10.839 18.8274L8.57636 18.8134C8.63716 18.1877 9.16991 17.7086 9.80969 17.7043C10.1026 17.7055 10.3815 17.8281 10.5775 18.042Z" fill="white"/>
<path id="Shape_2" fill-rule="evenodd" clip-rule="evenodd" d="M15.7249 18.7899H15.5162C14.373 18.7899 12.5325 19.0369 12.5325 20.5002C12.5376 20.9267 12.7228 21.332 13.0439 21.6192C13.3651 21.9064 13.7932 22.0497 14.2259 22.0147C14.8903 22.0077 15.5 21.6522 15.8245 21.0827H15.8482C15.8309 21.1528 15.823 21.2249 15.8245 21.297V21.4928C15.8072 21.6055 15.8447 21.7196 15.9258 21.8011C16.0069 21.8825 16.1222 21.922 16.2372 21.9075H16.5788C16.6946 21.9236 16.8113 21.8849 16.8935 21.8032C16.9758 21.7215 17.0138 21.6064 16.9962 21.4928V18.7712C16.9962 17.499 16.2088 16.772 14.8853 16.772C14.3043 16.7698 13.7314 16.9057 13.2155 17.1681C13.1101 17.21 13.0301 17.2971 12.9986 17.4045C12.9672 17.5118 12.9877 17.6275 13.0543 17.718L13.1539 17.9044C13.2725 18.1421 13.4622 18.1794 13.7136 18.0722C14.0397 17.8957 14.404 17.7982 14.7762 17.7879C15.029 17.7509 15.2851 17.8303 15.4704 18.0033C15.6557 18.1762 15.7496 18.4234 15.7249 18.6734V18.7899ZM15.7391 19.7359C15.765 20.4107 15.2516 20.9886 14.5675 21.0547H14.5627C14.3727 21.0755 14.1824 21.0182 14.0369 20.8964C13.8914 20.7746 13.8036 20.5992 13.7943 20.4116C13.7943 19.666 14.8853 19.5681 15.5257 19.5681H15.7391V19.7359Z" fill="white"/>
<path id="Path_2" d="M18.0683 15.318C18.053 15.2057 18.0911 15.0928 18.1717 15.0118C18.2523 14.9308 18.3664 14.8908 18.4809 14.9032H18.9221C19.0364 14.8904 19.1502 14.9305 19.2302 15.0118C19.3101 15.0931 19.347 15.2062 19.3301 15.318V20.2252C19.3301 20.7192 19.5435 20.8077 19.7333 20.8263C19.8228 20.831 19.9065 20.8715 19.9648 20.9384C20.023 21.0054 20.0508 21.0929 20.0416 21.1805V21.516C20.0585 21.6303 20.0205 21.7458 19.9388 21.8288C19.8571 21.9117 19.7409 21.9529 19.6242 21.9401C18.9411 21.9401 18.0683 21.763 18.0683 20.323V15.318Z" fill="white"/>
<path id="Path_3" d="M21.014 17.9371H20.7436C20.6286 17.9515 20.5133 17.9121 20.4322 17.8306C20.3511 17.7492 20.3136 17.635 20.3309 17.5224V17.3546C20.317 17.2409 20.3569 17.1273 20.4393 17.0464C20.5217 16.9654 20.6374 16.9261 20.7531 16.9398H21.0425V15.9193C21.0304 15.806 21.071 15.6935 21.1529 15.613C21.2348 15.5325 21.3494 15.4926 21.4646 15.5045H21.8631C21.9783 15.4926 22.0929 15.5325 22.1748 15.613C22.2568 15.6935 22.2974 15.806 22.2853 15.9193V16.9398H23.0253C23.1405 16.928 23.2551 16.9678 23.337 17.0483C23.419 17.1288 23.4595 17.2414 23.4475 17.3546V17.5224C23.4628 17.6346 23.4246 17.7476 23.344 17.8286C23.2634 17.9095 23.1494 17.9496 23.0348 17.9371H22.2853V19.8804C22.2525 20.1142 22.3238 20.3504 22.4809 20.5289C22.638 20.7073 22.8658 20.8106 23.1059 20.8125C23.419 20.8404 23.5281 20.9383 23.5281 21.2179V21.5208C23.5281 21.8144 23.3573 21.9356 23.0063 21.9356C22.0955 21.9356 21.014 21.4695 21.014 20.0715V17.9371Z" fill="white"/>
<path id="Path_4" d="M24.2776 15.3179C24.2655 15.2047 24.3061 15.0922 24.3881 15.0117C24.47 14.9312 24.5845 14.8913 24.6998 14.9032H25.1315C25.2468 14.8891 25.3623 14.9285 25.444 15.0097C25.5257 15.0909 25.5645 15.2048 25.5489 15.3179V17.3451C25.5496 17.487 25.5401 17.6287 25.5204 17.7692V17.7692C25.8903 17.1309 26.59 16.7468 27.3372 16.7719C28.4662 16.7719 29.1161 17.3544 29.1161 18.6826V21.4787C29.1317 21.5919 29.0929 21.7058 29.0112 21.787C28.9295 21.8682 28.814 21.9075 28.6986 21.8935H28.267C28.1508 21.9091 28.034 21.8705 27.9511 21.7891C27.8682 21.7076 27.8289 21.5928 27.8448 21.4787V18.9203C27.8448 18.3098 27.6882 17.895 27.0431 17.895C26.1561 17.895 25.5726 18.6034 25.5726 19.5587V21.4741C25.5902 21.5877 25.5522 21.7028 25.4699 21.7845C25.3877 21.8662 25.271 21.9049 25.1552 21.8888H24.7235C24.6074 21.9045 24.4905 21.8658 24.4076 21.7844C24.3247 21.703 24.2854 21.5881 24.3013 21.4741L24.2776 15.3179Z" fill="white"/>
<path id="Shape_3" fill-rule="evenodd" clip-rule="evenodd" d="M32.8721 15.0117C32.7915 15.0927 32.7534 15.2056 32.7687 15.3179V21.474C32.7514 21.5867 32.7889 21.7008 32.8699 21.7823C32.951 21.8638 33.0663 21.9032 33.1814 21.8888H35.1926C37.3937 21.8888 38.8167 20.5932 38.8167 18.3889C38.8167 16.1847 37.3842 14.9031 35.1926 14.9031H33.1814C33.0668 14.8906 32.9527 14.9307 32.8721 15.0117ZM37.5122 18.3889C37.5122 19.9594 36.5635 20.7983 35.1405 20.7983H34.0494V15.9983H35.1405C36.5635 15.9983 37.5122 16.8185 37.5122 18.3889Z" fill="white"/>
<path id="Shape_4" fill-rule="evenodd" clip-rule="evenodd" d="M42.5167 18.7899H42.3222C41.179 18.7899 39.3385 19.0369 39.3385 20.5002C39.349 20.9209 39.5346 21.3189 39.8519 21.6016C40.1692 21.8843 40.5905 22.0269 41.0177 21.9961C41.6821 21.9891 42.2918 21.6336 42.6163 21.0641H42.64C42.6227 21.1342 42.6148 21.2063 42.6163 21.2785V21.4742C42.599 21.5869 42.6365 21.701 42.7176 21.7825C42.7987 21.864 42.914 21.9034 43.029 21.889H43.3706C43.4864 21.905 43.6031 21.8663 43.6853 21.7846C43.7676 21.7029 43.8056 21.5878 43.788 21.4742V18.7526C43.788 17.4804 43.0006 16.7534 41.6771 16.7534C41.0931 16.7576 40.5188 16.8999 40.0026 17.1682C39.898 17.211 39.8191 17.2986 39.7886 17.4058C39.758 17.5131 39.7792 17.6281 39.8461 17.7181L39.9457 17.9045C40.0643 18.1422 40.254 18.1794 40.5054 18.0723C40.8315 17.8958 41.1958 17.7983 41.568 17.788C41.8208 17.7509 42.0769 17.8304 42.2622 18.0033C42.4475 18.1763 42.5414 18.4235 42.5167 18.6734V18.7899ZM42.5452 19.7359C42.571 20.4108 42.0576 20.9887 41.3735 21.0548H41.3688C41.1795 21.0742 40.9905 21.0163 40.846 20.8947C40.7016 20.773 40.6144 20.5984 40.605 20.4117C40.605 19.666 41.6961 19.5682 42.3365 19.5682H42.5452V19.7359Z" fill="white"/>
<path id="Path_5" d="M45.1068 17.9371H44.8364C44.7213 17.9515 44.6061 17.9121 44.525 17.8306C44.4439 17.7492 44.4064 17.635 44.4237 17.5224V17.3546C44.4097 17.2409 44.4497 17.1273 44.5321 17.0464C44.6145 16.9654 44.7302 16.9261 44.8459 16.9398H45.1352V15.9193C45.1232 15.806 45.1637 15.6935 45.2457 15.613C45.3276 15.5325 45.4422 15.4926 45.5574 15.5045H45.9559C46.0711 15.4926 46.1857 15.5325 46.2676 15.613C46.3495 15.6935 46.3901 15.806 46.3781 15.9193V16.9398H47.1181C47.2333 16.928 47.3478 16.9678 47.4298 17.0483C47.5117 17.1288 47.5523 17.2414 47.5402 17.3546V17.5224C47.5555 17.6346 47.5174 17.7476 47.4368 17.8286C47.3562 17.9095 47.2421 17.9496 47.1275 17.9371H46.3781V19.8804C46.3453 20.1142 46.4166 20.3504 46.5737 20.5289C46.7308 20.7073 46.9585 20.8106 47.1987 20.8125C47.507 20.8404 47.6209 20.9383 47.6209 21.2179V21.5208C47.6209 21.8144 47.4501 21.9356 47.0991 21.9356C46.1883 21.9356 45.1068 21.4695 45.1068 20.0715V17.9371Z" fill="white"/>
<path id="Shape_5" fill-rule="evenodd" clip-rule="evenodd" d="M51.1738 18.7899H50.965C49.8218 18.7899 47.9813 19.0369 47.9813 20.5002C47.9881 20.9212 48.1708 21.321 48.4866 21.6057C48.8024 21.8904 49.2235 22.0349 49.6511 22.0055C50.3168 21.9992 50.9283 21.6437 51.2544 21.0734C51.2468 21.1447 51.2468 21.2165 51.2544 21.2878V21.4835C51.2371 21.5962 51.2746 21.7103 51.3557 21.7918C51.4368 21.8733 51.552 21.9127 51.6671 21.8983H52.0039C52.1253 21.9239 52.2517 21.888 52.3405 21.8027C52.4292 21.7174 52.4685 21.594 52.445 21.4742V18.7526C52.445 17.4804 51.6529 16.7534 50.3341 16.7534C49.7501 16.7571 49.1756 16.8994 48.6597 17.1682C48.5555 17.2114 48.4768 17.2986 48.4455 17.4053C48.4142 17.5121 48.4336 17.627 48.4984 17.7181L48.6027 17.9045C48.7213 18.1422 48.9111 18.1794 49.1625 18.0723C49.4884 17.8952 49.8528 17.7977 50.225 17.788C50.4775 17.7528 50.7324 17.8329 50.9172 18.0054C51.1021 18.1779 51.1966 18.424 51.1738 18.6734V18.7899ZM51.188 19.7359C51.2139 20.4108 50.7004 20.9887 50.0163 21.0548H50.0116C49.8224 21.0742 49.6333 21.0163 49.4889 20.8947C49.3444 20.773 49.2573 20.5984 49.2479 20.4117C49.2479 19.666 50.3389 19.5682 50.9793 19.5682H51.188V19.7359Z" fill="white"/>
<path id="Shape_6" fill-rule="evenodd" clip-rule="evenodd" d="M56.2212 15.012C56.1413 15.0933 56.1044 15.2064 56.1214 15.3182V21.4231C56.1214 21.7027 56.2589 21.8378 56.5293 21.8378H57.0037C57.1187 21.8522 57.234 21.8128 57.3151 21.7313C57.3962 21.6499 57.4337 21.5357 57.4164 21.4231V19.2328H58.6592L59.9115 21.5629C59.9981 21.7418 60.1843 21.8534 60.3859 21.8471H60.9266C61.2587 21.8471 61.3868 21.6654 61.216 21.3811L60.0443 19.2747C59.9799 19.147 59.9037 19.0253 59.8166 18.9112C60.5645 18.5644 61.0294 17.8124 60.9978 17.0005C61.0507 16.1807 60.5744 15.4164 59.8071 15.0899C59.3745 14.9364 58.9141 14.8729 58.4552 14.9034H56.5293C56.415 14.8906 56.3012 14.9307 56.2212 15.012ZM59.3868 17.8717C59.1709 18.0856 58.8699 18.1949 58.5643 18.1702H57.4069V16.0126H58.3556C58.6174 15.9948 58.8799 16.0346 59.1241 16.1291C59.4939 16.2906 59.7187 16.6649 59.6838 17.0611C59.7114 17.3611 59.6027 17.6578 59.3868 17.8717Z" fill="white"/>
<path id="Shape_7" fill-rule="evenodd" clip-rule="evenodd" d="M66.5525 19.1625C66.5525 17.7878 65.7413 16.7719 64.2898 16.7719C63.5766 16.7488 62.887 17.0245 62.393 17.5303C61.8989 18.0361 61.6469 18.7244 61.6998 19.4235C61.6831 20.1365 61.969 20.8243 62.4891 21.3219C63.0092 21.8196 63.7165 22.0823 64.4416 22.0472C65.0552 22.0459 65.6558 21.8729 66.173 21.5485C66.2727 21.5004 66.346 21.4117 66.3733 21.3059C66.4007 21.2 66.3795 21.0878 66.3153 20.9986L66.192 20.7983C66.0639 20.5746 65.8837 20.5419 65.6322 20.6631C65.3023 20.8672 64.9216 20.9785 64.5317 20.9847C64.1389 21.0023 63.7553 20.8642 63.4672 20.6013C63.1791 20.3384 63.0106 19.9728 62.9995 19.5866H66.1161C66.3542 19.5841 66.5474 19.3964 66.5525 19.1625ZM65.0184 18.0369C65.2128 18.2464 65.3097 18.5259 65.2859 18.8084L63.028 18.813C63.0888 18.1873 63.6215 17.7082 64.2613 17.7039C64.5498 17.7068 64.8241 17.8275 65.0184 18.0369Z" fill="white"/>
<path id="Path_6" d="M67.155 20.9336L67.2735 20.7565C67.4253 20.5515 67.5961 20.5328 67.8475 20.6587C68.1886 20.8719 68.5819 20.991 68.986 21.0035C69.4271 21.0035 69.6975 20.8078 69.6975 20.4909C69.6975 19.6754 67.1644 19.9829 67.1644 18.2587C67.1644 17.2754 68.0467 16.7534 69.1188 16.7534C69.6171 16.7522 70.1073 16.8774 70.5419 17.1169C70.6415 17.1664 70.7146 17.2555 70.7428 17.3616C70.7709 17.4677 70.7513 17.5806 70.6889 17.6715L70.5893 17.8486C70.4707 18.0816 70.281 18.1142 70.0296 18.0024C69.7276 17.8521 69.3955 17.7694 69.0571 17.76C68.616 17.76 68.3646 17.9371 68.3646 18.2493C68.3646 19.0742 70.9024 18.7527 70.9024 20.4629C70.9024 21.3484 70.1387 22.0055 68.9575 22.0055C68.3507 22.0085 67.7572 21.8315 67.2546 21.4975C67.1529 21.446 67.0816 21.3507 67.062 21.2399C67.0425 21.1291 67.0769 21.0158 67.155 20.9336V20.9336Z" fill="white"/>
<path id="Shape_8" fill-rule="evenodd" clip-rule="evenodd" d="M76.2958 19.1626C76.2958 17.7879 75.4846 16.772 74.0331 16.772C73.3295 16.7526 72.6498 17.0239 72.1593 17.5199C71.6688 18.0159 71.4125 18.6913 71.4526 19.3817C71.4289 20.1013 71.7137 20.7976 72.2378 21.3009C72.7618 21.8042 73.4769 22.0682 74.2086 22.0287C74.8222 22.0274 75.4228 21.8544 75.94 21.53C76.0397 21.4818 76.113 21.3931 76.1403 21.2873C76.1677 21.1815 76.1465 21.0692 76.0823 20.9801L75.959 20.7797C75.8309 20.556 75.6507 20.5234 75.3993 20.6446C75.0693 20.8487 74.6886 20.9599 74.2987 20.9661C73.9051 20.9903 73.5182 20.8576 73.2254 20.598C72.9326 20.3384 72.7587 19.9739 72.7428 19.5867H75.8594C76.0975 19.5843 76.2907 19.3966 76.2958 19.1626ZM74.7724 18.0417C74.9684 18.2555 75.0634 18.5408 75.034 18.8271L72.7713 18.8131C72.8321 18.1874 73.3648 17.7083 74.0046 17.704C74.2976 17.7052 74.5764 17.8278 74.7724 18.0417Z" fill="white"/>
<path id="Shape_9" fill-rule="evenodd" clip-rule="evenodd" d="M79.92 18.7899H79.7113C78.5681 18.7899 76.7275 19.0369 76.7275 20.5002C76.7378 20.9235 76.9253 21.3239 77.2458 21.607C77.5663 21.8901 77.9915 22.0309 78.421 21.9961C79.0865 21.9889 79.6975 21.6337 80.0243 21.0641C80.0167 21.1354 80.0167 21.2072 80.0243 21.2785V21.4742C80.0243 21.7538 80.1619 21.889 80.4323 21.889H80.7738C80.8899 21.9046 81.0068 21.866 81.0897 21.7845C81.1726 21.7031 81.2119 21.5883 81.196 21.4742V18.7526C81.196 17.4804 80.4038 16.7534 79.0804 16.7534C78.4978 16.7569 77.9248 16.8992 77.4106 17.1682C77.3065 17.2114 77.2278 17.2986 77.1965 17.4053C77.1652 17.5121 77.1846 17.627 77.2493 17.7181L77.3489 17.9045C77.4675 18.1422 77.6573 18.1794 77.9087 18.0723C78.2348 17.8957 78.5991 17.7983 78.9713 17.788C79.2241 17.7509 79.4802 17.8304 79.6655 18.0033C79.8508 18.1763 79.9447 18.4235 79.92 18.6734V18.7899ZM79.9342 19.7359C79.9601 20.4108 79.4466 20.9887 78.7625 21.0548C78.5721 21.0756 78.3813 21.0184 78.235 20.8967C78.0887 20.7751 77.9999 20.5997 77.9893 20.4117C77.9893 19.666 79.0803 19.5682 79.7207 19.5682H79.9342V19.7359Z" fill="white"/>
<path id="Path_7" d="M82.2775 17.2846C82.2622 17.1736 82.2998 17.0618 82.3795 16.9817C82.4593 16.9015 82.5721 16.862 82.6855 16.8745H83.0744C83.1892 16.8611 83.3039 16.8998 83.3861 16.9796C83.4683 17.0594 83.509 17.1717 83.4966 17.2846V17.7506C83.4964 17.8646 83.4869 17.9783 83.4682 18.0908V18.0908C83.6674 17.4943 84.2271 16.8232 84.9482 16.8232C85.228 16.8232 85.3324 16.963 85.3324 17.238V17.6201C85.3432 17.7347 85.3008 17.848 85.217 17.9284C85.1333 18.0089 85.0171 18.048 84.9007 18.0349C83.952 18.0349 83.5203 18.939 83.5203 19.8524V21.4648C83.5376 21.5775 83.5001 21.6916 83.4191 21.7731C83.338 21.8546 83.2227 21.894 83.1076 21.8796H82.6665C82.3961 21.8796 82.2585 21.7444 82.2585 21.4648L82.2775 17.2846Z" fill="white"/>
<path id="Path_8" d="M88.1928 16.7718C88.7865 16.7541 89.3713 16.9168 89.8673 17.2378C89.9602 17.2964 90.0226 17.3919 90.0381 17.4993C90.0535 17.6067 90.0206 17.7154 89.9479 17.7971L89.8151 17.9928C89.6633 18.2211 89.4973 18.2211 89.2554 18.1046C88.9638 17.9066 88.6184 17.7995 88.264 17.7971C87.8439 17.7876 87.4386 17.9497 87.1446 18.2447C86.8507 18.5397 86.6943 18.9412 86.7128 19.3536C86.6859 19.7798 86.8429 20.1974 87.1453 20.5042C87.4476 20.811 87.8674 20.9786 88.3019 20.966C88.714 20.9576 89.1133 20.8241 89.4451 20.5839C89.6965 20.4487 89.8863 20.4767 90.0143 20.7143L90.114 20.9008C90.1777 20.9866 90.2022 21.0947 90.1815 21.1991C90.1608 21.3034 90.0968 21.3946 90.0049 21.4507C89.4793 21.8287 88.8442 22.0312 88.1928 22.0285C87.211 22.0692 86.2855 21.5777 85.7822 20.7485C85.279 19.9193 85.279 18.8857 85.7822 18.0565C86.2855 17.2273 87.211 16.7358 88.1928 16.7765V16.7718Z" fill="white"/>
<path id="Path_9" d="M90.9488 15.3181C90.9361 15.2043 90.9774 15.0911 91.0607 15.011C91.144 14.931 91.2602 14.893 91.3757 14.908H91.8074C91.9231 14.8943 92.0387 14.9336 92.1211 15.0145C92.2035 15.0955 92.2435 15.2091 92.2295 15.3228V17.3499C92.2304 17.492 92.2192 17.6338 92.1963 17.774V17.774C92.557 17.1422 93.2427 16.7569 93.9799 16.7721C95.1136 16.7721 95.7635 17.3546 95.7635 18.6828V21.4789C95.7794 21.593 95.7401 21.7078 95.6572 21.7892C95.5744 21.8706 95.4575 21.9093 95.3413 21.8936H94.9144C94.7978 21.9113 94.6797 21.8734 94.5963 21.7914C94.5129 21.7095 94.4742 21.5934 94.4922 21.4789V18.9204C94.4922 18.3099 94.331 17.8952 93.6906 17.8952C92.7988 17.8952 92.2201 18.6035 92.2201 19.5589V21.4742C92.236 21.5883 92.1967 21.7031 92.1138 21.7846C92.0309 21.866 91.914 21.9046 91.7979 21.889H91.3757C91.2603 21.903 91.1449 21.8637 91.0631 21.7825C90.9814 21.7013 90.9427 21.5874 90.9583 21.4742L90.9488 15.3181Z" fill="white"/>
<path id="Path_10" d="M0.474353 25.4585C0.459058 25.3462 0.497214 25.2333 0.577806 25.1523C0.658398 25.0713 0.772454 25.0313 0.887045 25.0437H1.3614C1.47599 25.0313 1.59005 25.0713 1.67064 25.1523C1.75123 25.2333 1.78939 25.3462 1.7741 25.4585V31.6146C1.79139 31.7273 1.75389 31.8414 1.67282 31.9229C1.59174 32.0044 1.47646 32.0438 1.3614 32.0294H0.887045C0.771991 32.0438 0.656711 32.0044 0.575633 31.9229C0.494555 31.8414 0.457063 31.7273 0.474353 31.6146V25.4585Z" fill="white"/>
<path id="Path_11" d="M3.04055 27.4252C3.02358 27.3134 3.0605 27.2002 3.14043 27.119C3.22036 27.0377 3.33421 26.9976 3.4485 27.0104H3.84222C3.9565 26.9976 4.07036 27.0377 4.15029 27.119C4.23022 27.2002 4.26713 27.3134 4.25016 27.4252V27.7281C4.25519 27.8041 4.25519 27.8804 4.25016 27.9564V27.9564C4.59884 27.292 5.30149 26.88 6.06222 26.8939C7.19593 26.8939 7.84581 27.4718 7.84581 28.7999V31.596C7.86173 31.7101 7.8224 31.8249 7.73952 31.9064C7.65664 31.9878 7.53975 32.0264 7.42363 32.0108H6.9967C6.88102 32.0245 6.76534 31.9852 6.68295 31.9043C6.60055 31.8233 6.56058 31.7097 6.57452 31.596V29.0562C6.57452 28.4457 6.41324 28.0356 5.77286 28.0356C4.87157 28.0356 4.30234 28.772 4.30234 29.676V31.6147C4.31963 31.7273 4.28214 31.8415 4.20106 31.9229C4.11999 32.0044 4.00471 32.0438 3.88965 32.0294H3.4485C3.33421 32.0422 3.22036 32.0021 3.14043 31.9209C3.0605 31.8396 3.02358 31.7264 3.04055 31.6147V27.4252Z" fill="white"/>
<path id="Path_12" d="M8.93688 27.4253C8.92158 27.3131 8.95974 27.2001 9.04033 27.1191C9.12092 27.0381 9.23498 26.9981 9.34957 27.0106H9.73854C9.85313 26.9981 9.96719 27.0381 10.0478 27.1191C10.1284 27.2001 10.1665 27.3131 10.1512 27.4253V27.7282C10.1497 27.8049 10.1418 27.8812 10.1275 27.9566H10.1512C10.4973 27.2898 11.2017 26.8768 11.9633 26.8941C13.0923 26.8941 13.7421 27.4719 13.7421 28.8001V31.5962C13.7598 31.7098 13.7217 31.8249 13.6395 31.9066C13.5572 31.9883 13.4405 32.027 13.3247 32.011H12.893C12.7773 32.0247 12.6617 31.9854 12.5793 31.9045C12.4969 31.8235 12.4569 31.7099 12.4709 31.5962V29.0564C12.4709 28.4459 12.3143 28.0358 11.6692 28.0358C10.7679 28.0358 10.1987 28.7721 10.1987 29.6762V31.6149C10.2156 31.7266 10.1787 31.8398 10.0988 31.921C10.0189 32.0023 9.90501 32.0424 9.79072 32.0296H9.34957C9.23452 32.044 9.11924 32.0046 9.03816 31.9231C8.95708 31.8416 8.91959 31.7275 8.93688 31.6149V27.4253Z" fill="white"/>
<path id="Shape_10" fill-rule="evenodd" clip-rule="evenodd" d="M19.8792 29.5955C19.9211 28.1588 18.7805 26.9554 17.3188 26.8942C16.592 26.869 15.8857 27.1336 15.3604 27.6277C14.8352 28.1218 14.5355 28.8035 14.5295 29.5179C14.5283 30.9553 15.7025 32.127 17.1654 32.1483C18.6283 32.1695 19.8373 31.0323 19.8792 29.5955ZM18.8475 30.1787C18.5752 30.7605 17.9698 31.1208 17.3188 31.0884V31.0837C16.9048 31.0816 16.5096 30.914 16.2241 30.6194C15.9386 30.3249 15.7875 29.9289 15.8056 29.5226C15.8064 28.8822 16.204 28.3069 16.8096 28.0699C17.4151 27.8329 18.1065 27.9821 18.5553 28.4465C19.0041 28.9109 19.1198 29.5969 18.8475 30.1787Z" fill="white"/>
<path id="Path_13" d="M20.4733 27.4904C20.3736 27.2061 20.4733 27.0244 20.8053 27.0244H21.2797C21.5037 27.0054 21.707 27.1532 21.754 27.3692L22.7027 30.1327C22.779 30.3826 22.8423 30.6362 22.8925 30.8923V30.8923C22.9354 30.6313 22.994 30.373 23.068 30.1188L24.0167 27.3553C24.0697 27.1449 24.2714 27.0042 24.4911 27.0244H24.9654C25.2738 27.0244 25.4066 27.2108 25.307 27.4904L23.7795 31.6846C23.7285 31.8968 23.5263 32.0399 23.3052 32.0201H22.5035C22.2812 32.0442 22.0764 31.8993 22.0292 31.6846L20.4733 27.4904Z" fill="white"/>
<path id="Shape_11" fill-rule="evenodd" clip-rule="evenodd" d="M28.8362 28.9305H28.6228C27.4843 28.9305 25.6391 29.1775 25.6438 30.6455C25.6529 31.07 25.8397 31.472 26.1602 31.7568C26.4806 32.0417 26.9064 32.1842 27.3373 32.1507C28.0067 32.1397 28.6187 31.7768 28.9406 31.2001C28.9329 31.2729 28.9329 31.3463 28.9406 31.4191V31.6148C28.9236 31.7266 28.9606 31.8398 29.0405 31.921C29.1204 32.0023 29.2343 32.0424 29.3486 32.0296H29.6901C29.8062 32.0452 29.9231 32.0066 30.006 31.9252C30.0889 31.8437 30.1282 31.7289 30.1123 31.6148V28.8886C30.1123 27.621 29.3201 26.894 27.9966 26.894C27.4148 26.8987 26.8425 27.0392 26.3269 27.3041C26.2225 27.3485 26.1439 27.4365 26.1126 27.5439C26.0814 27.6513 26.1008 27.7669 26.1656 27.8587L26.2652 28.0451C26.3087 28.1478 26.3966 28.2261 26.5049 28.2585C26.6132 28.291 26.7305 28.2742 26.825 28.2129C27.1498 28.0327 27.5146 27.9335 27.8875 27.9239C28.14 27.8888 28.3949 27.9689 28.5797 28.1414C28.7646 28.3139 28.859 28.5599 28.8362 28.8094V28.9305ZM28.8457 29.8719C28.8716 30.5467 28.3581 31.1247 27.674 31.1907C27.4809 31.2131 27.2871 31.1546 27.1401 31.0296C26.993 30.9046 26.9062 30.7246 26.9008 30.5337C26.9008 29.7834 27.9919 29.6855 28.6323 29.6855H28.8457V29.8719Z" fill="white"/>
<path id="Path_14" d="M31.4073 28.0729H31.1322C30.8618 28.0729 30.7242 27.9378 30.7242 27.6582V27.4904C30.7086 27.3772 30.7474 27.2634 30.8291 27.1822C30.9108 27.101 31.0263 27.0616 31.1417 27.0757H31.431V26.0504C31.4186 25.9375 31.4593 25.8252 31.5415 25.7454C31.6237 25.6656 31.7384 25.6269 31.8532 25.6403H32.2517C32.3664 25.6269 32.4812 25.6656 32.5633 25.7454C32.6455 25.8252 32.6862 25.9375 32.6738 26.0504V27.0757H33.4138C33.5291 27.0638 33.6436 27.1037 33.7256 27.1842C33.8075 27.2647 33.8481 27.3772 33.836 27.4904V27.6535C33.8513 27.7658 33.8132 27.8787 33.7326 27.9597C33.652 28.0407 33.5379 28.0807 33.4233 28.0683H32.6786V30.0162C32.6474 30.2497 32.7193 30.4851 32.8761 30.6631C33.0328 30.8412 33.2596 30.945 33.4992 30.9483C33.8123 30.9762 33.9214 31.0741 33.9214 31.3491V31.6846C33.9214 31.9782 33.7506 32.0947 33.3996 32.0947C32.4888 32.0947 31.4073 31.6287 31.4073 30.2586V28.0729Z" fill="white"/>
<path id="Shape_12" fill-rule="evenodd" clip-rule="evenodd" d="M34.671 25.4585V25.7521C34.6566 25.863 34.6956 25.9741 34.7765 26.0527C34.8574 26.1312 34.971 26.1683 35.0836 26.1529H35.5248C35.6378 26.1679 35.7516 26.131 35.8332 26.0526C35.9147 25.9743 35.955 25.8634 35.9422 25.7521V25.4585C35.9559 25.3458 35.9165 25.233 35.8353 25.1523C35.754 25.0716 35.6397 25.0316 35.5248 25.0437H35.0836C34.9691 25.0313 34.855 25.0713 34.7744 25.1523C34.6938 25.2333 34.6557 25.3462 34.671 25.4585ZM34.7743 27.1189C34.6937 27.1999 34.6556 27.3128 34.6709 27.4251V31.6193C34.6536 31.732 34.6911 31.8461 34.7722 31.9276C34.8532 32.009 34.9685 32.0485 35.0836 32.034H35.5247C35.639 32.0469 35.7529 32.0067 35.8328 31.9255C35.9127 31.8442 35.9496 31.7311 35.9327 31.6193V27.4251C35.9496 27.3133 35.9127 27.2002 35.8328 27.1189C35.7529 27.0376 35.639 26.9975 35.5247 27.0103H35.0836C34.969 26.9979 34.8549 27.0379 34.7743 27.1189Z" fill="white"/>
<path id="Shape_13" fill-rule="evenodd" clip-rule="evenodd" d="M42.1215 29.6066C42.1701 28.1725 41.0391 26.9652 39.5804 26.894C38.8504 26.8636 38.1392 27.1258 37.6097 27.6205C37.0803 28.1152 36.778 28.7999 36.7722 29.5177C36.7714 30.9525 37.9421 32.1228 39.4023 32.1471C40.8626 32.1713 42.0729 31.0406 42.1215 29.6066ZM41.1092 30.1785C40.8368 30.7603 40.2314 31.1205 39.5804 31.0881V31.0835C39.166 31.0827 38.77 30.9154 38.4842 30.6206C38.1984 30.3258 38.0478 29.929 38.0672 29.5223C38.068 28.882 38.4657 28.3066 39.0712 28.0697C39.6768 27.8327 40.3681 27.9818 40.8169 28.4462C41.2657 28.9106 41.3815 29.5967 41.1092 30.1785Z" fill="white"/>
<path id="Path_15" d="M43.2235 27.4252C43.2085 27.3138 43.2461 27.2018 43.3255 27.121C43.405 27.0402 43.5177 26.9995 43.6315 27.0104H44.0252C44.1395 26.9976 44.2533 27.0377 44.3333 27.119C44.4132 27.2002 44.4501 27.3134 44.4331 27.4252V27.7281C44.4382 27.8041 44.4382 27.8804 44.4331 27.9564V27.9564C44.7818 27.292 45.4845 26.88 46.2452 26.8939C47.3789 26.8939 48.0288 27.4718 48.0288 28.7999V31.596C48.0464 31.7096 48.0084 31.8247 47.9261 31.9064C47.8439 31.9881 47.7272 32.0268 47.6114 32.0108H47.1797C47.064 32.0245 46.9483 31.9852 46.8659 31.9043C46.7835 31.8233 46.7436 31.7097 46.7575 31.596V29.0562C46.7575 28.4457 46.5962 28.0356 45.9558 28.0356C45.0546 28.0356 44.4853 28.772 44.4853 29.676V31.6147C44.5026 31.7273 44.4651 31.8415 44.384 31.9229C44.303 32.0044 44.1877 32.0438 44.0726 32.0294H43.6315C43.5172 32.0422 43.4033 32.0021 43.3234 31.9209C43.2435 31.8396 43.2066 31.7264 43.2235 31.6147V27.4252Z" fill="white"/>
<path id="Path_16" d="M54.9686 24.9274C55.79 24.9146 56.5975 25.1364 57.293 25.5659C57.3919 25.6214 57.4597 25.7182 57.4773 25.8289C57.4948 25.9395 57.4602 26.0519 57.3831 26.1344L57.2028 26.4094C57.051 26.6377 56.8708 26.6564 56.6194 26.5212C56.1434 26.2374 55.5965 26.089 55.0398 26.0925C54.3828 26.0648 53.7447 26.3124 53.2843 26.7736C52.8239 27.2348 52.5843 27.8664 52.6253 28.5111C52.5833 29.1545 52.8145 29.7862 53.2639 30.256C53.7134 30.7258 54.3408 30.9917 54.9971 30.9904C55.6828 31.0021 56.3402 30.7217 56.7996 30.2214V29.4432H56.1213C56.0061 29.455 55.8915 29.4152 55.8096 29.3347C55.7276 29.2542 55.687 29.1416 55.6991 29.0284V28.7628C55.6852 28.6491 55.7251 28.5355 55.8075 28.4545C55.8899 28.3736 56.0056 28.3343 56.1213 28.348H57.5444C57.6587 28.3352 57.7725 28.3753 57.8525 28.4566C57.9324 28.5378 57.9693 28.651 57.9523 28.7628V31.6148C57.9693 31.7266 57.9324 31.8398 57.8525 31.921C57.7725 32.0023 57.6587 32.0424 57.5444 32.0296H57.293C57.0226 32.0296 56.8803 31.8898 56.8803 31.694V31.5263C56.8773 31.4704 56.8773 31.4144 56.8803 31.3585V31.3585C56.3206 31.8894 55.566 32.1752 54.7884 32.1507C53.8355 32.1502 52.9241 31.7682 52.2643 31.0928C51.6046 30.4174 51.2536 29.507 51.2923 28.5717C51.258 27.6009 51.6332 26.6593 52.3291 25.9694C53.0251 25.2795 53.9802 24.9024 54.9686 24.9274V24.9274Z" fill="white"/>
<path id="Shape_14" fill-rule="evenodd" clip-rule="evenodd" d="M61.7805 28.9305H61.567C60.4285 28.9305 58.5833 29.1775 58.588 30.6269C58.5971 31.0513 58.7839 31.4534 59.1044 31.7382C59.4248 32.0231 59.8507 32.1656 60.2815 32.1321C60.947 32.1249 61.558 31.7696 61.8848 31.2001C61.8771 31.2729 61.8771 31.3463 61.8848 31.4191V31.6148C61.8678 31.7266 61.9048 31.8398 61.9847 31.921C62.0646 32.0023 62.1785 32.0424 62.2928 32.0296H62.6343C62.7504 32.0452 62.8673 32.0066 62.9502 31.9252C63.0331 31.8437 63.0724 31.7289 63.0565 31.6148V28.8886C63.0565 27.621 62.2643 26.894 60.9408 26.894C60.359 26.8987 59.7867 27.0392 59.2711 27.3041C59.1667 27.3485 59.0881 27.4365 59.0568 27.5439C59.0256 27.6513 59.045 27.7669 59.1098 27.8587L59.2094 28.0451C59.2529 28.1478 59.3408 28.2261 59.4491 28.2585C59.5574 28.291 59.6747 28.2742 59.7692 28.2129C60.094 28.0327 60.4588 27.9335 60.8317 27.9239C61.0842 27.8888 61.3391 27.9689 61.5239 28.1414C61.7088 28.3139 61.8033 28.5599 61.7805 28.8094V28.9305ZM61.7899 29.8719C61.8158 30.5467 61.3024 31.1247 60.6183 31.1907C60.4251 31.2131 60.2313 31.1546 60.0843 31.0296C59.9372 30.9046 59.8504 30.7246 59.8451 30.5337C59.8451 29.7834 60.9361 29.6855 61.5765 29.6855H61.7899V29.8719Z" fill="white"/>
<path id="Path_17" d="M64.3372 28.0728H64.0669C63.9518 28.0872 63.8365 28.0478 63.7554 27.9663C63.6744 27.8849 63.6369 27.7707 63.6542 27.6581V27.4903C63.6402 27.3766 63.6802 27.263 63.7626 27.1821C63.845 27.1011 63.9607 27.0618 64.0763 27.0755H64.3657V26.0503C64.3465 25.9305 64.3879 25.809 64.4766 25.7246C64.5654 25.6402 64.6903 25.6035 64.8116 25.6262H65.2101C65.3248 25.6128 65.4396 25.6515 65.5217 25.7313C65.6039 25.8111 65.6446 25.9234 65.6322 26.0363V27.0616H66.3722C66.4875 27.0497 66.602 27.0896 66.684 27.1701C66.7659 27.2506 66.8065 27.3631 66.7944 27.4763V27.6394C66.8097 27.7517 66.7716 27.8646 66.691 27.9456C66.6104 28.0266 66.4963 28.0667 66.3817 28.0542H65.6322V30.0021C65.6011 30.2356 65.6729 30.471 65.8297 30.649C65.9865 30.8271 66.2133 30.9309 66.4529 30.9342C66.766 30.9621 66.8751 31.06 66.8751 31.335V31.6845C66.8751 31.9781 66.7043 32.0946 66.3533 32.0946C65.4425 32.0946 64.361 31.6286 64.361 30.2585L64.3372 28.0728Z" fill="white"/>
<path id="Shape_15" fill-rule="evenodd" clip-rule="evenodd" d="M72.1215 29.2845C72.1215 27.9051 71.3103 26.8938 69.8588 26.8938C69.1529 26.8768 68.4721 27.1516 67.9824 27.6514C67.4926 28.1511 67.2389 28.8298 67.283 29.5222C67.2663 30.2364 67.5527 30.9254 68.0737 31.4239C68.5946 31.9224 69.3032 32.1856 70.0295 32.1505C70.6379 32.1447 71.232 31.9685 71.742 31.6426C71.8409 31.5935 71.9131 31.5044 71.9395 31.3987C71.966 31.293 71.9441 31.1812 71.8795 31.0927L71.7609 30.8969C71.6329 30.6686 71.4526 30.6406 71.2012 30.7571C70.8724 30.9642 70.4913 31.0772 70.1007 31.0833C69.7118 31.101 69.3318 30.966 69.0444 30.7081C68.7569 30.4503 68.5857 30.0906 68.5685 29.7086H71.6803C71.9193 29.7062 72.1138 29.5192 72.1215 29.2845ZM70.5943 28.1697C70.79 28.3814 70.8863 28.6642 70.8597 28.949H68.597C68.6555 28.3214 69.1889 27.8397 69.8303 27.8352C70.1214 27.8366 70.3986 27.958 70.5943 28.1697Z" fill="white"/>
<path id="Path_18" d="M72.5342 27.4906C72.4794 27.381 72.4914 27.2506 72.5653 27.1525C72.6392 27.0544 72.7626 27.005 72.8853 27.0245H73.3596C73.5862 27.0029 73.7878 27.1655 73.8103 27.388L74.6356 30.2867C74.6973 30.5523 74.7353 30.8179 74.7353 30.8179V30.8179C74.7353 30.8179 74.7779 30.5523 74.8491 30.2867L75.7219 27.374C75.7562 27.1492 75.9666 26.9921 76.1963 27.0199H76.5758C76.8055 26.9921 77.0159 27.1492 77.0501 27.374L77.904 30.3053C77.9549 30.4792 77.9914 30.6569 78.0131 30.8366V30.8366C78.0131 30.8366 78.0558 30.5709 78.1269 30.3053L78.9381 27.374C78.9677 27.1454 79.1795 26.9831 79.4124 27.0106H79.8868C80.0094 26.991 80.1329 27.0404 80.2068 27.1385C80.2807 27.2366 80.2927 27.3671 80.2378 27.4766L78.9238 31.6707C78.8788 31.888 78.6741 32.0368 78.4495 32.0156H77.7759C77.5489 32.0339 77.3444 31.8812 77.3015 31.6614L76.5331 29.1496C76.4809 28.972 76.4397 28.7915 76.4097 28.609V28.609C76.3768 28.7913 76.3341 28.9717 76.2817 29.1496L75.4658 31.6847C75.4315 31.9096 75.2211 32.0667 74.9914 32.0389H74.2988C74.0736 32.0623 73.8675 31.9125 73.8245 31.694L72.5342 27.4906Z" fill="white"/>
<path id="Shape_16" fill-rule="evenodd" clip-rule="evenodd" d="M83.7575 28.9305H83.5487C82.4055 28.9305 80.565 29.1775 80.5555 30.6269C80.5634 31.0509 80.7491 31.453 81.0688 31.738C81.3885 32.023 81.8139 32.1656 82.2443 32.1321C82.91 32.1258 83.5215 31.7703 83.8476 31.2001C83.8398 31.2729 83.8398 31.3463 83.8476 31.4191V31.6148C83.8303 31.7275 83.8678 31.8416 83.9489 31.9231C84.0299 32.0046 84.1452 32.044 84.2603 32.0296H84.6113C84.7274 32.0452 84.8443 32.0066 84.9272 31.9252C85.0101 31.8437 85.0494 31.7289 85.0335 31.6148V28.8886C85.0335 27.621 84.2413 26.894 82.9226 26.894C82.3393 26.8988 81.7654 27.0394 81.2481 27.3041C81.1437 27.3485 81.0651 27.4365 81.0338 27.5439C81.0026 27.6513 81.022 27.7669 81.0868 27.8587L81.1864 28.0451C81.231 28.1481 81.3198 28.2263 81.4288 28.2587C81.5377 28.2911 81.6557 28.2743 81.7509 28.2129C82.074 28.0325 82.4373 27.9333 82.8087 27.9239C83.0612 27.8888 83.3161 27.9689 83.501 28.1414C83.6858 28.3139 83.7803 28.5599 83.7575 28.8094V28.9305ZM83.7859 29.8719C83.8113 30.5517 83.2898 31.1316 82.6 31.1907H82.5953C82.4057 31.2076 82.2175 31.1464 82.0754 31.0219C81.9334 30.8974 81.8503 30.7206 81.8458 30.5337C81.8458 29.7834 82.9368 29.6855 83.5772 29.6855H83.7859V29.8719Z" fill="white"/>
<path id="Path_19" d="M86.1293 32.9709C86.2411 33.0266 86.3644 33.0569 86.4898 33.0594C86.8728 33.0196 87.1933 32.7563 87.3009 32.393L87.4907 31.927L85.5505 27.4905C85.4177 27.2015 85.5505 27.0245 85.8684 27.0245H86.4091C86.6269 27.0159 86.8226 27.1544 86.8835 27.36L87.8322 29.9184C87.9223 30.1841 88.0219 30.5942 88.0219 30.5942H88.0552C88.0552 30.5942 88.1453 30.2027 88.2212 29.9371L89.1225 27.3693C89.1675 27.1521 89.3722 27.0033 89.5968 27.0245H90.0949C90.408 27.0245 90.536 27.2109 90.4364 27.4905L88.335 32.7845C88.0798 33.5733 87.3323 34.1075 86.4898 34.1033C86.2452 34.0978 86.0038 34.0472 85.7782 33.9542C85.6714 33.92 85.5868 33.8388 85.5496 33.7346C85.5124 33.6305 85.5268 33.5152 85.5885 33.4229L85.6786 33.2085C85.7379 33.022 85.9382 32.9163 86.1293 32.9709V32.9709Z" fill="white"/>
<path id="Path_20" d="M78.345 44.4629V35.0586H76.533V47.8462L85.8494 41.5735L84.8248 40.1009L78.345 44.4629V44.4629Z" fill="url(#paint0_linear_5229_7219)"/>
<path id="Path_21" d="M101.679 18.3936L100.597 19.8242L107.48 24.8572L100.626 29.4708L101.65 30.9388L110.597 24.9178L101.679 18.3936V18.3936Z" fill="url(#paint1_linear_5229_7219)"/>
<path id="Path_22" d="M76.533 12.8668H78.345V3.54641L84.7963 8.26718L85.8778 6.8365L76.533 0V12.8668V12.8668Z" fill="url(#paint2_linear_5229_7219)"/>
</g>
<defs>
<linearGradient id="paint0_linear_5229_7219" x1="43.237" y1="28.0745" x2="81.7597" y2="62.955" gradientUnits="userSpaceOnUse">
<stop offset="0.19" stop-color="white"/>
<stop offset="0.33" stop-color="white"/>
<stop offset="0.45" stop-color="white"/>
<stop offset="0.58" stop-color="white"/>
<stop offset="0.7" stop-color="white"/>
<stop offset="0.79" stop-color="white"/>
</linearGradient>
<linearGradient id="paint1_linear_5229_7219" x1="67.6787" y1="11.7103" x2="103.766" y2="50.8284" gradientUnits="userSpaceOnUse">
<stop offset="0.19" stop-color="white"/>
<stop offset="0.33" stop-color="white"/>
<stop offset="0.45" stop-color="white"/>
<stop offset="0.58" stop-color="white"/>
<stop offset="0.7" stop-color="white"/>
<stop offset="0.79" stop-color="white"/>
</linearGradient>
<linearGradient id="paint2_linear_5229_7219" x1="58.6455" y1="19.4438" x2="97.2339" y2="54.1721" gradientUnits="userSpaceOnUse">
<stop offset="0.19" stop-color="white"/>
<stop offset="0.33" stop-color="white"/>
<stop offset="0.45" stop-color="white"/>
<stop offset="0.58" stop-color="white"/>
<stop offset="0.7" stop-color="white"/>
<stop offset="0.79" stop-color="white"/>
</linearGradient>
</defs>
</svg>
