<svg width="111" height="48" viewBox="0 0 111 48" fill="none" xmlns="http://www.w3.org/2000/svg">
<path d="M0.473408 15.3181C0.458145 15.2058 0.496223 15.0929 0.576647 15.0119C0.657072 14.9309 0.77089 14.8908 0.885243 14.9033H1.35862C1.47297 14.8908 1.58679 14.9309 1.66721 15.0119C1.74764 15.0929 1.78571 15.2058 1.77045 15.3181V17.8672H5.01779V15.3181C5.00222 15.2049 5.04089 15.091 5.12245 15.0098C5.20401 14.9286 5.31923 14.8893 5.43436 14.9033H5.90773C6.02208 14.8908 6.1359 14.9309 6.21632 15.0119C6.29675 15.0929 6.33483 15.2058 6.31956 15.3181V21.4742C6.33682 21.5869 6.2994 21.701 6.21849 21.7825C6.13758 21.8639 6.02254 21.9034 5.90773 21.8889H5.43436C5.31878 21.905 5.2023 21.8663 5.12024 21.7846C5.03817 21.7029 5.00018 21.5878 5.01779 21.4742V18.9577H1.75625V21.4742C1.7735 21.5869 1.73609 21.701 1.65518 21.7825C1.57427 21.8639 1.45923 21.9034 1.34441 21.8889H0.871042C0.756227 21.9034 0.641187 21.8639 0.560277 21.7825C0.479368 21.701 0.441953 21.5869 0.459207 21.4742L0.473408 15.3181Z" fill="#3C3C3B"/>
<path fill-rule="evenodd" clip-rule="evenodd" d="M12.0757 19.1627C12.0757 17.788 11.2663 16.772 9.81774 16.772C9.10919 16.7496 8.42394 17.0227 7.93084 17.5241C7.43773 18.0255 7.18263 18.7086 7.22839 19.405C7.21307 20.1185 7.4995 20.8062 8.01921 21.3037C8.53892 21.8012 9.2452 22.0638 9.96922 22.0287C10.5815 22.0267 11.1806 21.8538 11.697 21.5301C11.7954 21.4808 11.8673 21.3921 11.8945 21.2868C11.9217 21.1815 11.9015 21.0698 11.839 20.9802L11.716 20.7798C11.5882 20.5561 11.4083 20.5235 11.1574 20.6447C10.8278 20.8481 10.4481 20.9593 10.0592 20.9662C9.66716 20.9839 9.2844 20.8457 8.99687 20.5828C8.70935 20.3199 8.54119 19.9543 8.53017 19.5682H11.6592C11.8825 19.5568 12.0616 19.3824 12.0757 19.1627ZM10.5555 18.0418C10.7511 18.2556 10.8459 18.5409 10.8166 18.8272L8.55858 18.8132C8.61926 18.1875 9.1509 17.7084 9.78935 17.7041C10.0817 17.7053 10.3599 17.8279 10.5555 18.0418Z" fill="#3C3C3B"/>
<path fill-rule="evenodd" clip-rule="evenodd" d="M15.6923 18.7899H15.484C14.3432 18.7899 12.5065 19.0369 12.5065 20.5002C12.5116 20.9267 12.6964 21.3321 13.0169 21.6192C13.3373 21.9064 13.7645 22.0497 14.1964 22.0147C14.8593 22.0077 15.4679 21.6522 15.7917 21.0827H15.8153C15.7981 21.1528 15.7901 21.2249 15.7917 21.2971V21.4928C15.7744 21.6055 15.8118 21.7196 15.8927 21.8011C15.9737 21.8825 16.0887 21.922 16.2035 21.9075H16.5443C16.6599 21.9236 16.7764 21.8849 16.8585 21.8032C16.9405 21.7215 16.9785 21.6064 16.9609 21.4928V18.7712C16.9609 17.499 16.1751 16.772 14.8544 16.772C14.2746 16.7698 13.703 16.9057 13.1881 17.1681C13.0829 17.21 13.0031 17.2971 12.9717 17.4045C12.9402 17.5119 12.9607 17.6275 13.0272 17.718L13.1266 17.9044C13.2449 18.1421 13.4343 18.1794 13.6852 18.0722C14.0106 17.8957 14.3741 17.7982 14.7455 17.7879C14.9978 17.7509 15.2534 17.8303 15.4383 18.0033C15.6232 18.1762 15.7169 18.4234 15.6923 18.6734V18.7899ZM15.7065 19.7359C15.7323 20.4107 15.22 20.9886 14.5373 21.0547H14.5326C14.343 21.0755 14.1531 21.0182 14.0078 20.8965C13.8626 20.7747 13.775 20.5992 13.7657 20.4116C13.7657 19.666 14.8545 19.5681 15.4935 19.5681H15.7065V19.7359Z" fill="#3C3C3B"/>
<path d="M18.0307 15.3181C18.0155 15.2058 18.0535 15.0929 18.134 15.0119C18.2144 14.9309 18.3282 14.8909 18.4425 14.9033H18.8828C18.9968 14.8905 19.1104 14.9306 19.1902 15.0119C19.27 15.0932 19.3068 15.2063 19.2899 15.3181V20.2253C19.2899 20.7193 19.5029 20.8078 19.6923 20.8264C19.7816 20.8311 19.8651 20.8716 19.9233 20.9385C19.9814 21.0055 20.0091 21.093 19.9999 21.1806V21.5161C20.0168 21.6304 19.9789 21.7459 19.8974 21.8288C19.8159 21.9118 19.6999 21.953 19.5834 21.9402C18.9017 21.9402 18.0307 21.7631 18.0307 20.3231V15.3181Z" fill="#3C3C3B"/>
<path d="M20.9705 17.9371H20.7006C20.5858 17.9515 20.4708 17.9121 20.3899 17.8306C20.309 17.7491 20.2715 17.635 20.2888 17.5223V17.3546C20.2749 17.2409 20.3148 17.1273 20.397 17.0463C20.4792 16.9654 20.5947 16.9261 20.7101 16.9398H20.9989V15.9192C20.9868 15.806 21.0273 15.6935 21.1091 15.613C21.1908 15.5325 21.3051 15.4926 21.4202 15.5045H21.8178C21.9328 15.4926 22.0471 15.5325 22.1289 15.613C22.2106 15.6935 22.2511 15.806 22.2391 15.9192V16.9398H22.9776C23.0926 16.928 23.2069 16.9678 23.2886 17.0483C23.3704 17.1288 23.4109 17.2414 23.3989 17.3546V17.5223C23.4141 17.6346 23.376 17.7475 23.2956 17.8285C23.2152 17.9095 23.1014 17.9496 22.987 17.9371H22.2391V19.8804C22.2064 20.1141 22.2775 20.3504 22.4343 20.5289C22.5911 20.7073 22.8184 20.8106 23.058 20.8124C23.3705 20.8404 23.4793 20.9383 23.4793 21.2179V21.5208C23.4793 21.8144 23.3089 21.9356 22.9586 21.9356C22.0497 21.9356 20.9705 21.4695 20.9705 20.0715V17.9371Z" fill="#3C3C3B"/>
<path d="M24.2272 15.3181C24.2152 15.2048 24.2557 15.0923 24.3375 15.0118C24.4192 14.9313 24.5335 14.8914 24.6486 14.9033H25.0793C25.1944 14.8893 25.3097 14.9286 25.3912 15.0098C25.4728 15.091 25.5115 15.2049 25.4959 15.3181V17.3452C25.4966 17.4871 25.4871 17.6288 25.4675 17.7693C25.8366 17.131 26.5349 16.7469 27.2805 16.772C28.4071 16.772 29.0557 17.3546 29.0557 18.6827V21.4788C29.0712 21.592 29.0326 21.7059 28.951 21.7871C28.8694 21.8683 28.7542 21.9076 28.6391 21.8936H28.2083C28.0924 21.9092 27.9758 21.8706 27.8931 21.7892C27.8104 21.7078 27.7711 21.5929 27.787 21.4788V18.9204C27.787 18.3099 27.6308 17.8951 26.987 17.8951C26.1018 17.8951 25.5196 18.6035 25.5196 19.5588V21.4742C25.5372 21.5878 25.4992 21.7029 25.4171 21.7846C25.335 21.8663 25.2186 21.905 25.103 21.8889H24.6722C24.5563 21.9046 24.4397 21.8659 24.357 21.7845C24.2743 21.7031 24.235 21.5883 24.2509 21.4742L24.2272 15.3181Z" fill="#3C3C3B"/>
<path fill-rule="evenodd" clip-rule="evenodd" d="M32.8038 15.0118C32.7234 15.0928 32.6853 15.2058 32.7005 15.318V21.4741C32.6833 21.5868 32.7207 21.7009 32.8016 21.7824C32.8825 21.8639 32.9976 21.9033 33.1124 21.8889H35.1195C37.3159 21.8889 38.736 20.5934 38.736 18.3891C38.736 16.1848 37.3065 14.9033 35.1195 14.9033H33.1124C32.998 14.8908 32.8842 14.9308 32.8038 15.0118ZM37.4343 18.3891C37.4343 19.9596 36.4875 20.7984 35.0674 20.7984H33.9786V15.9984H35.0674C36.4875 15.9984 37.4343 16.8186 37.4343 18.3891Z" fill="#3C3C3B"/>
<path fill-rule="evenodd" clip-rule="evenodd" d="M42.4284 18.7899H42.2344C41.0935 18.7899 39.2568 19.0369 39.2568 20.5002C39.2674 20.9209 39.4525 21.3189 39.7692 21.6016C40.0858 21.8843 40.5063 22.0269 40.9326 21.9961C41.5955 21.9891 42.204 21.6336 42.5278 21.0641H42.5515C42.5342 21.1342 42.5263 21.2063 42.5278 21.2785V21.4742C42.5106 21.5869 42.548 21.701 42.6289 21.7825C42.7098 21.8639 42.8249 21.9034 42.9397 21.8889H43.2805C43.3961 21.905 43.5126 21.8663 43.5946 21.7846C43.6767 21.7029 43.7147 21.5878 43.6971 21.4742V18.7526C43.6971 17.4804 42.9113 16.7534 41.5906 16.7534C41.0078 16.7576 40.4347 16.8999 39.9196 17.1682C39.8151 17.211 39.7364 17.2986 39.706 17.4058C39.6755 17.5131 39.6966 17.6281 39.7633 17.7181L39.8628 17.9045C39.9811 18.1421 40.1704 18.1794 40.4213 18.0722C40.7468 17.8957 41.1103 17.7983 41.4817 17.788C41.734 17.7509 41.9895 17.8304 42.1745 18.0033C42.3594 18.1763 42.4531 18.4235 42.4284 18.6734V18.7899ZM42.4567 19.7359C42.4825 20.4107 41.9702 20.9887 41.2875 21.0547H41.2828C41.0939 21.0742 40.9053 21.0163 40.7611 20.8946C40.617 20.773 40.53 20.5983 40.5206 20.4116C40.5206 19.666 41.6094 19.5681 42.2484 19.5681H42.4567V19.7359Z" fill="#3C3C3B"/>
<path d="M45.013 17.9371H44.7432C44.6284 17.9515 44.5133 17.9121 44.4324 17.8306C44.3515 17.7491 44.3141 17.635 44.3313 17.5223V17.3546C44.3174 17.2409 44.3573 17.1273 44.4395 17.0463C44.5218 16.9654 44.6372 16.9261 44.7526 16.9398H45.0414V15.9192C45.0293 15.806 45.0698 15.6935 45.1516 15.613C45.2334 15.5325 45.3477 15.4926 45.4627 15.5045H45.8603C45.9753 15.4926 46.0896 15.5325 46.1714 15.613C46.2532 15.6935 46.2937 15.806 46.2816 15.9192V16.9398H47.0201C47.1351 16.928 47.2494 16.9678 47.3312 17.0483C47.4129 17.1288 47.4534 17.2414 47.4414 17.3546V17.5223C47.4567 17.6346 47.4186 17.7475 47.3382 17.8285C47.2577 17.9095 47.1439 17.9496 47.0296 17.9371H46.2816V19.8804C46.2489 20.1141 46.3201 20.3504 46.4769 20.5289C46.6337 20.7073 46.8609 20.8106 47.1006 20.8124C47.4083 20.8404 47.5219 20.9383 47.5219 21.2179V21.5208C47.5219 21.8144 47.3515 21.9356 47.0012 21.9356C46.0923 21.9356 45.013 21.4695 45.013 20.0715V17.9371Z" fill="#3C3C3B"/>
<path fill-rule="evenodd" clip-rule="evenodd" d="M51.0676 18.7899H50.8593C49.7185 18.7899 47.8818 19.0369 47.8818 20.5002C47.8885 20.9212 48.0709 21.321 48.386 21.6057C48.7012 21.8904 49.1214 22.0349 49.548 22.0055C50.2124 21.9992 50.8227 21.6437 51.148 21.0734C51.1405 21.1447 51.1405 21.2165 51.148 21.2878V21.4835C51.1308 21.5962 51.1682 21.7103 51.2491 21.7918C51.33 21.8733 51.4451 21.9127 51.5599 21.8983H51.896C52.0171 21.9239 52.1433 21.888 52.2319 21.8027C52.3205 21.7174 52.3596 21.594 52.3362 21.4742V18.7526C52.3362 17.4804 51.5457 16.7534 50.2297 16.7534C49.6469 16.7571 49.0736 16.8994 48.5587 17.1682C48.4548 17.2114 48.3762 17.2986 48.345 17.4053C48.3137 17.5121 48.3331 17.627 48.3978 17.7181L48.5019 17.9045C48.6202 18.1421 48.8096 18.1794 49.0605 18.0722C49.3857 17.8952 49.7493 17.7977 50.1208 17.788C50.3727 17.7528 50.6271 17.8329 50.8116 18.0054C50.9961 18.1779 51.0903 18.4239 51.0676 18.6734V18.7899ZM51.0817 19.7359C51.1075 20.4107 50.5951 20.9887 49.9124 21.0547H49.9077C49.7189 21.0742 49.5302 21.0163 49.3861 20.8946C49.2419 20.773 49.1549 20.5983 49.1456 20.4116C49.1456 19.666 50.2343 19.5681 50.8734 19.5681H51.0817V19.7359Z" fill="#3C3C3B"/>
<path fill-rule="evenodd" clip-rule="evenodd" d="M56.1043 15.0119C56.0246 15.0931 55.9877 15.2063 56.0047 15.3181V21.4229C56.0047 21.7025 56.1419 21.8377 56.4118 21.8377H56.8851C56.9999 21.8521 57.115 21.8127 57.1959 21.7312C57.2768 21.6497 57.3142 21.5356 57.297 21.4229V19.2326H58.5372L59.7869 21.5627C59.8733 21.7416 60.0591 21.8532 60.2603 21.847H60.7999C61.1313 21.847 61.2591 21.6653 61.0887 21.381L59.9194 19.2746C59.8552 19.1468 59.7791 19.0251 59.6922 18.9111C60.4386 18.5643 60.9025 17.8123 60.8709 17.0004C60.9237 16.1806 60.4484 15.4163 59.6828 15.0897C59.251 14.9363 58.7916 14.8728 58.3336 14.9033H56.4118C56.2977 14.8905 56.1841 14.9306 56.1043 15.0119ZM59.2635 17.8715C59.048 18.0854 58.7476 18.1947 58.4426 18.1701H57.2876V16.0124H58.2344C58.4956 15.9946 58.7576 16.0344 59.0012 16.1289C59.3703 16.2905 59.5946 16.6648 59.5598 17.061C59.5874 17.361 59.4789 17.6576 59.2635 17.8715Z" fill="#3C3C3B"/>
<path fill-rule="evenodd" clip-rule="evenodd" d="M66.4141 19.1627C66.4141 17.788 65.6046 16.7721 64.1561 16.7721C63.4444 16.749 62.7562 17.0247 62.2632 17.5305C61.7702 18.0364 61.5187 18.7246 61.5715 19.4237C61.5548 20.1368 61.8402 20.8245 62.3591 21.3222C62.8781 21.8198 63.584 22.0825 64.3076 22.0474C64.9199 22.0461 65.5192 21.8732 66.0354 21.5488C66.1349 21.5006 66.208 21.4119 66.2353 21.3061C66.2626 21.2003 66.2415 21.088 66.1774 20.9989L66.0543 20.7985C65.9265 20.5748 65.7466 20.5422 65.4957 20.6633C65.1665 20.8675 64.7866 20.9787 64.3975 20.9849C64.0055 21.0025 63.6228 20.8644 63.3352 20.6015C63.0477 20.3386 62.8795 19.973 62.8685 19.5868H65.9786C66.2162 19.5844 66.409 19.3967 66.4141 19.1627ZM64.8833 18.0371C65.0772 18.2466 65.1739 18.5261 65.1503 18.8086L62.897 18.8132C62.9577 18.1875 63.4893 17.7084 64.1278 17.7041C64.4157 17.707 64.6894 17.8277 64.8833 18.0371Z" fill="#3C3C3B"/>
<path d="M67.0155 20.9336L67.1339 20.7565C67.2854 20.5515 67.4558 20.5328 67.7067 20.6587C68.0471 20.8719 68.4395 20.991 68.8427 21.0035C69.283 21.0035 69.5528 20.8078 69.5528 20.4909C69.5528 19.6754 67.025 19.9829 67.025 18.2587C67.025 17.2754 67.9055 16.7534 68.9753 16.7534C69.4726 16.7522 69.9617 16.8774 70.3954 17.1169C70.4948 17.1664 70.5678 17.2555 70.5959 17.3616C70.624 17.4677 70.6044 17.5805 70.5422 17.6715L70.4427 17.8486C70.3244 18.0816 70.1351 18.1142 69.8842 18.0023C69.5828 17.8521 69.2514 17.7694 68.9138 17.76C68.4735 17.76 68.2226 17.9371 68.2226 18.2493C68.2226 19.0742 70.7552 18.7526 70.7552 20.4629C70.7552 21.3484 69.993 22.0055 68.8143 22.0055C68.2088 22.0085 67.6165 21.8315 67.1149 21.4975C67.0134 21.446 66.9423 21.3506 66.9228 21.2399C66.9033 21.1291 66.9376 21.0158 67.0155 20.9336Z" fill="#3C3C3B"/>
<path fill-rule="evenodd" clip-rule="evenodd" d="M76.1374 19.1627C76.1374 17.788 75.3279 16.7721 73.8794 16.7721C73.1772 16.7527 72.4989 17.024 72.0095 17.52C71.52 18.016 71.2642 18.6914 71.3043 19.3818C71.2806 20.1014 71.5649 20.7977 72.0878 21.301C72.6108 21.8043 73.3243 22.0683 74.0546 22.0288C74.6669 22.0275 75.2662 21.8545 75.7824 21.5301C75.8819 21.4819 75.9549 21.3932 75.9823 21.2874C76.0096 21.1816 75.9884 21.0693 75.9244 20.9802L75.8013 20.7798C75.6735 20.5561 75.4936 20.5235 75.2427 20.6447C74.9134 20.8488 74.5336 20.96 74.1445 20.9662C73.7517 20.9904 73.3656 20.8577 73.0734 20.5981C72.7812 20.3385 72.6076 19.974 72.5918 19.5868H75.7019C75.9395 19.5844 76.1323 19.3967 76.1374 19.1627ZM74.6171 18.0418C74.8127 18.2556 74.9075 18.5409 74.8781 18.8272L72.6201 18.8132C72.6808 18.1875 73.2124 17.7084 73.8509 17.7041C74.1432 17.7053 74.4215 17.8279 74.6171 18.0418Z" fill="#3C3C3B"/>
<path fill-rule="evenodd" clip-rule="evenodd" d="M79.7538 18.7899H79.5455C78.4047 18.7899 76.568 19.0369 76.568 20.5002C76.5783 20.9235 76.7654 21.3239 77.0852 21.607C77.405 21.8901 77.8293 22.0309 78.2579 21.9961C78.922 21.9889 79.5318 21.6337 79.8579 21.0641C79.8504 21.1354 79.8504 21.2072 79.8579 21.2785V21.4742C79.8579 21.7538 79.9952 21.8889 80.265 21.8889H80.6059C80.7218 21.9046 80.8384 21.866 80.9211 21.7845C81.0038 21.7031 81.0431 21.5883 81.0272 21.4742V18.7526C81.0272 17.4804 80.2366 16.7534 78.9159 16.7534C78.3346 16.7569 77.7628 16.8992 77.2497 17.1682C77.1457 17.2114 77.0672 17.2986 77.0359 17.4053C77.0047 17.5121 77.0241 17.627 77.0887 17.7181L77.1881 17.9045C77.3065 18.1421 77.4958 18.1794 77.7467 18.0722C78.0721 17.8957 78.4356 17.7983 78.807 17.788C79.0593 17.7509 79.3149 17.8304 79.4998 18.0033C79.6848 18.1763 79.7785 18.4235 79.7538 18.6734V18.7899ZM79.768 19.7359C79.7939 20.4107 79.2815 20.9887 78.5988 21.0547C78.4087 21.0755 78.2183 21.0184 78.0724 20.8967C77.9264 20.7751 77.8378 20.5996 77.8272 20.4116C77.8272 19.666 78.916 19.5681 79.555 19.5681H79.768V19.7359Z" fill="#3C3C3B"/>
<path d="M82.1065 17.2846C82.0912 17.1736 82.1287 17.0618 82.2083 16.9817C82.2878 16.9016 82.4005 16.862 82.5136 16.8745H82.9017C83.0163 16.8611 83.1308 16.8998 83.2128 16.9796C83.2948 17.0595 83.3354 17.1717 83.323 17.2846V17.7507C83.3228 17.8646 83.3133 17.9784 83.2946 18.0908C83.4934 17.4943 84.052 16.8233 84.7716 16.8233C85.0508 16.8233 85.155 16.9631 85.155 17.238V17.6202C85.1657 17.7348 85.1234 17.848 85.0399 17.9285C84.9563 18.0089 84.8403 18.048 84.7242 18.0349C83.7775 18.0349 83.3467 18.939 83.3467 19.8524V21.4648C83.364 21.5775 83.3265 21.6916 83.2456 21.7731C83.1647 21.8546 83.0497 21.894 82.9349 21.8796H82.4946C82.2248 21.8796 82.0875 21.7444 82.0875 21.4648L82.1065 17.2846Z" fill="#3C3C3B"/>
<path d="M88.0094 16.7721C88.6019 16.7543 89.1854 16.917 89.6804 17.2381C89.7731 17.2967 89.8354 17.3921 89.8508 17.4995C89.8663 17.6069 89.8334 17.7156 89.7609 17.7973L89.6283 17.993C89.4769 18.2214 89.3112 18.2214 89.0698 18.1049C88.7788 17.9069 88.4341 17.7997 88.0804 17.7973C87.6612 17.7879 87.2567 17.9499 86.9634 18.2449C86.67 18.5399 86.514 18.9414 86.5325 19.3538C86.5057 19.78 86.6623 20.1976 86.964 20.5044C87.2658 20.8112 87.6847 20.9788 88.1183 20.9662C88.5295 20.9578 88.928 20.8243 89.2591 20.5841C89.51 20.4489 89.6993 20.4769 89.8271 20.7146L89.9266 20.901C89.9902 20.9869 90.0146 21.095 89.994 21.1993C89.9733 21.3037 89.9094 21.3948 89.8177 21.4509C89.2932 21.8289 88.6594 22.0315 88.0094 22.0288C87.0296 22.0694 86.106 21.578 85.6038 20.7487C85.1016 19.9195 85.1016 18.886 85.6038 18.0567C86.106 17.2275 87.0296 16.7361 88.0094 16.7767V16.7721Z" fill="#3C3C3B"/>
<path d="M90.7597 15.3181C90.7471 15.2043 90.7882 15.0911 90.8714 15.011C90.9545 14.931 91.0704 14.893 91.1857 14.908H91.6165C91.7319 14.8943 91.8474 14.9336 91.9296 15.0145C92.0118 15.0954 92.0517 15.2091 92.0378 15.3227V17.3499C92.0386 17.4919 92.0275 17.6338 92.0047 17.774C92.3646 17.1421 93.0489 16.7569 93.7846 16.7721C94.9159 16.7721 95.5644 17.3546 95.5644 18.6827V21.4789C95.5803 21.5929 95.5411 21.7078 95.4584 21.7892C95.3757 21.8706 95.259 21.9093 95.1431 21.8936H94.7171C94.6008 21.9113 94.4828 21.8734 94.3996 21.7914C94.3164 21.7095 94.2778 21.5934 94.2958 21.4789V18.9204C94.2958 18.3099 94.1348 17.8952 93.4958 17.8952C92.6058 17.8952 92.0283 18.6035 92.0283 19.5589V21.4742C92.0442 21.5883 92.005 21.7031 91.9223 21.7845C91.8396 21.866 91.7229 21.9046 91.607 21.889H91.1857C91.0706 21.903 90.9554 21.8636 90.8738 21.7824C90.7923 21.7012 90.7536 21.5874 90.7692 21.4742L90.7597 15.3181Z" fill="#3C3C3B"/>
<path d="M0.473367 25.4586C0.458104 25.3464 0.496182 25.2334 0.576606 25.1524C0.65703 25.0714 0.770849 25.0314 0.885202 25.0439H1.35857C1.47293 25.0314 1.58675 25.0714 1.66717 25.1524C1.74759 25.2334 1.78567 25.3464 1.77041 25.4586V31.6147C1.78766 31.7274 1.75025 31.8415 1.66934 31.923C1.58843 32.0045 1.47339 32.0439 1.35857 32.0295H0.885202C0.770387 32.0439 0.655347 32.0045 0.574437 31.923C0.493528 31.8415 0.456114 31.7274 0.473367 31.6147V25.4586Z" fill="#3C3C3B"/>
<path d="M3.03431 27.4253C3.01739 27.3135 3.05422 27.2003 3.13399 27.1191C3.21375 27.0378 3.32737 26.9977 3.44142 27.0105H3.83431C3.94836 26.9977 4.06198 27.0378 4.14174 27.1191C4.22151 27.2003 4.25835 27.3135 4.24142 27.4253V27.7282C4.24643 27.8042 4.24643 27.8805 4.24142 27.9565C4.58936 27.2921 5.29055 26.8801 6.0497 26.894C7.18106 26.894 7.82958 27.4719 7.82958 28.8V31.5961C7.84547 31.7102 7.80622 31.8251 7.72352 31.9065C7.64081 31.9879 7.52416 32.0265 7.40828 32.0109H6.98224C6.8668 32.0246 6.75136 31.9853 6.66914 31.9044C6.58691 31.8234 6.54702 31.7098 6.56094 31.5961V29.0563C6.56094 28.4458 6.4 28.0357 5.76094 28.0357C4.86153 28.0357 4.29349 28.7721 4.29349 29.6761V31.6148C4.31074 31.7275 4.27333 31.8416 4.19242 31.9231C4.11151 32.0045 3.99647 32.044 3.88165 32.0295H3.44142C3.32737 32.0424 3.21375 32.0022 3.13399 31.921C3.05422 31.8397 3.01739 31.7265 3.03431 31.6148V27.4253Z" fill="#3C3C3B"/>
<path d="M8.91825 27.4252C8.90299 27.313 8.94107 27.2 9.02149 27.119C9.10192 27.038 9.21573 26.998 9.33009 27.0105H9.71825C9.83261 26.998 9.94642 27.038 10.0268 27.119C10.1073 27.2 10.1453 27.313 10.1301 27.4252V27.7281C10.1286 27.8048 10.1207 27.8811 10.1064 27.9565H10.1301C10.4755 27.2897 11.1783 26.8767 11.9384 26.894C13.065 26.894 13.7135 27.4718 13.7135 28.8V31.5961C13.7311 31.7097 13.6931 31.8248 13.6111 31.9065C13.529 31.9882 13.4125 32.0269 13.2969 32.0109H12.8662C12.7507 32.0246 12.6353 31.9853 12.5531 31.9043C12.4709 31.8234 12.431 31.7098 12.4449 31.5961V29.0563C12.4449 28.4458 12.2887 28.0357 11.6449 28.0357C10.7455 28.0357 10.1774 28.772 10.1774 29.6761V31.6147C10.1944 31.7265 10.1575 31.8397 10.0778 31.9209C9.99799 32.0022 9.88437 32.0423 9.77032 32.0295H9.33009C9.21527 32.0439 9.10023 32.0045 9.01932 31.923C8.93841 31.8415 8.901 31.7274 8.91825 31.6147V27.4252Z" fill="#3C3C3B"/>
<path fill-rule="evenodd" clip-rule="evenodd" d="M19.8381 29.5953C19.8799 28.1585 18.7417 26.9551 17.2829 26.894C16.5577 26.8688 15.8529 27.1333 15.3287 27.6274C14.8045 28.1215 14.5055 28.8032 14.4995 29.5177C14.4982 30.955 15.67 32.1268 17.1299 32.148C18.5898 32.1692 19.7962 31.032 19.8381 29.5953ZM18.8085 30.1785C18.5368 30.7603 17.9326 31.1206 17.283 31.0882V31.0835C16.8699 31.0814 16.4754 30.9137 16.1906 30.6192C15.9057 30.3247 15.7549 29.9287 15.7729 29.5224C15.7737 28.882 16.1706 28.3067 16.7748 28.0697C17.3791 27.8327 18.0691 27.9819 18.5169 28.4463C18.9648 28.9106 19.0803 29.5967 18.8085 30.1785Z" fill="#3C3C3B"/>
<path d="M20.4308 27.4905C20.3314 27.2062 20.4308 27.0245 20.7622 27.0245H21.2356C21.4591 27.0055 21.662 27.1533 21.7089 27.3693L22.6557 30.1328C22.7317 30.3827 22.7949 30.6363 22.845 30.8925C22.8878 30.6314 22.9463 30.3731 23.0202 30.1189L23.9669 27.3554C24.0198 27.145 24.2211 27.0043 24.4403 27.0245H24.9137C25.2214 27.0245 25.3539 27.2109 25.2545 27.4905L23.7302 31.6847C23.6793 31.897 23.4775 32.04 23.2569 32.0202H22.4569C22.235 32.0443 22.0307 31.8994 21.9835 31.6847L20.4308 27.4905Z" fill="#3C3C3B"/>
<path fill-rule="evenodd" clip-rule="evenodd" d="M28.7763 28.9305H28.5632C27.4272 28.9305 25.5857 29.1774 25.5905 30.6454C25.5995 31.0699 25.7859 31.4719 26.1057 31.7568C26.4256 32.0416 26.8505 32.1841 27.2804 32.1506C27.9485 32.1396 28.5592 31.7767 28.8804 31.2C28.8727 31.2728 28.8727 31.3462 28.8804 31.419V31.6147C28.8635 31.7265 28.9003 31.8397 28.9801 31.9209C29.0598 32.0022 29.1735 32.0423 29.2875 32.0295H29.6283C29.7442 32.0451 29.8609 32.0065 29.9436 31.9251C30.0263 31.8436 30.0655 31.7288 30.0496 31.6147V28.8885C30.0496 27.6209 29.2591 26.894 27.9384 26.894C27.3578 26.8986 26.7866 27.0391 26.2721 27.304C26.168 27.3484 26.0895 27.4364 26.0583 27.5438C26.0271 27.6513 26.0465 27.7668 26.1112 27.8586L26.2106 28.045C26.254 28.1477 26.3417 28.226 26.4497 28.2584C26.5578 28.2909 26.6749 28.2741 26.7692 28.2128C27.0933 28.0326 27.4574 27.9334 27.8295 27.9239C28.0814 27.8887 28.3358 27.9688 28.5203 28.1413C28.7047 28.3138 28.799 28.5598 28.7763 28.8093V28.9305ZM28.7857 29.8718C28.8115 30.5467 28.2991 31.1246 27.6165 31.1907C27.4237 31.213 27.2304 31.1545 27.0836 31.0295C26.9368 30.9045 26.8502 30.7246 26.8449 30.5336C26.8449 29.7833 27.9336 29.6854 28.5727 29.6854H28.7857V29.8718Z" fill="#3C3C3B"/>
<path d="M31.3419 28.073H31.0673C30.7975 28.073 30.6602 27.9379 30.6602 27.6583V27.4905C30.6447 27.3773 30.6833 27.2635 30.7649 27.1823C30.8465 27.1011 30.9617 27.0617 31.0768 27.0758H31.3656V26.0505C31.3532 25.9376 31.3938 25.8253 31.4758 25.7455C31.5578 25.6657 31.6723 25.627 31.7869 25.6404H32.1845C32.299 25.627 32.4135 25.6657 32.4955 25.7455C32.5776 25.8253 32.6181 25.9376 32.6058 26.0505V27.0758H33.3443C33.4593 27.0639 33.5736 27.1038 33.6554 27.1843C33.7371 27.2648 33.7776 27.3773 33.7656 27.4905V27.6536C33.7808 27.7659 33.7428 27.8788 33.6623 27.9598C33.5819 28.0408 33.4681 28.0808 33.3537 28.0684H32.6105V30.0163C32.5794 30.2498 32.6511 30.4852 32.8076 30.6632C32.9641 30.8413 33.1903 30.9451 33.4295 30.9484C33.7419 30.9763 33.8508 31.0742 33.8508 31.3492V31.6847C33.8508 31.9783 33.6804 32.0948 33.3301 32.0948C32.4212 32.0948 31.3419 31.6288 31.3419 30.2587V28.073Z" fill="#3C3C3B"/>
<path fill-rule="evenodd" clip-rule="evenodd" d="M34.599 25.4586V25.7522C34.5846 25.8631 34.6236 25.9742 34.7043 26.0528C34.7851 26.1314 34.8984 26.1684 35.0108 26.153H35.4511C35.5638 26.1681 35.6774 26.1311 35.7588 26.0528C35.8402 25.9745 35.8803 25.8636 35.8676 25.7522V25.4586C35.8813 25.3459 35.842 25.2332 35.7609 25.1524C35.6798 25.0717 35.5657 25.0317 35.4511 25.0439H35.0108C34.8965 25.0314 34.7827 25.0714 34.7022 25.1524C34.6218 25.2334 34.5837 25.3464 34.599 25.4586ZM34.7021 27.119C34.6217 27.2 34.5836 27.3129 34.5989 27.4252V31.6194C34.5816 31.732 34.619 31.8462 34.6999 31.9277C34.7808 32.0091 34.8959 32.0486 35.0107 32.0341H35.4509C35.565 32.047 35.6786 32.0068 35.7584 31.9256C35.8381 31.8443 35.875 31.7311 35.858 31.6194V27.4252C35.875 27.3134 35.8381 27.2003 35.7584 27.119C35.6786 27.0377 35.565 26.9976 35.4509 27.0104H35.0107C34.8963 26.998 34.7825 27.038 34.7021 27.119Z" fill="#3C3C3B"/>
<path fill-rule="evenodd" clip-rule="evenodd" d="M42.034 29.6066C42.0825 28.1725 40.9539 26.9652 39.4982 26.894C38.7697 26.8636 38.06 27.1258 37.5316 27.6205C37.0033 28.1152 36.7016 28.7999 36.6959 29.5177C36.6951 30.9525 37.8633 32.1228 39.3205 32.1471C40.7778 32.1713 41.9855 31.0406 42.034 29.6066ZM41.0237 30.1785C40.752 30.7603 40.1478 31.1206 39.4982 31.0882V31.0835C39.0846 31.0827 38.6894 30.9155 38.4042 30.6206C38.1191 30.3258 37.9687 29.929 37.9881 29.5223C37.9889 28.882 38.3858 28.3067 38.99 28.0697C39.5943 27.8327 40.2843 27.9819 40.7321 28.4462C41.18 28.9106 41.2955 29.5967 41.0237 30.1785Z" fill="#3C3C3B"/>
<path d="M43.1339 27.4253C43.1189 27.3139 43.1564 27.2019 43.2357 27.1211C43.315 27.0403 43.4274 26.9996 43.541 27.0105H43.9339C44.0479 26.9977 44.1615 27.0378 44.2413 27.1191C44.3211 27.2003 44.3579 27.3135 44.341 27.4253V27.7282C44.346 27.8042 44.346 27.8805 44.341 27.9565C44.6889 27.2921 45.3901 26.8801 46.1493 26.894C47.2806 26.894 47.9291 27.4719 47.9291 28.8V31.5961C47.9467 31.7097 47.9087 31.8248 47.8267 31.9065C47.7446 31.9882 47.6281 32.0269 47.5126 32.0109H47.0818C46.9664 32.0246 46.8509 31.9853 46.7687 31.9044C46.6865 31.8234 46.6466 31.7098 46.6605 31.5961V29.0563C46.6605 28.4458 46.4995 28.0357 45.8605 28.0357C44.9611 28.0357 44.393 28.7721 44.393 29.6761V31.6148C44.4103 31.7275 44.3729 31.8416 44.292 31.9231C44.2111 32.0045 44.096 32.044 43.9812 32.0295H43.541C43.4269 32.0424 43.3133 32.0022 43.2335 31.921C43.1538 31.8397 43.1169 31.7265 43.1339 31.6148V27.4253Z" fill="#3C3C3B"/>
<path d="M54.8546 24.9274C55.6742 24.9146 56.4801 25.1364 57.1741 25.5659C57.2728 25.6214 57.3405 25.7182 57.358 25.8288C57.3755 25.9394 57.3409 26.0519 57.264 26.1344L57.0842 26.4093C56.9327 26.6377 56.7528 26.6563 56.5019 26.5212C56.0269 26.2374 55.4812 26.089 54.9256 26.0925C54.27 26.0648 53.6332 26.3123 53.1738 26.7736C52.7143 27.2348 52.4753 27.8663 52.5161 28.5111C52.4742 29.1545 52.7049 29.7862 53.1534 30.256C53.6019 30.7258 54.2281 30.9916 54.883 30.9903C55.5673 31.0021 56.2233 30.7217 56.6818 30.2214V29.4431H56.0049C55.8899 29.455 55.7755 29.4151 55.6938 29.3346C55.612 29.2541 55.5715 29.1416 55.5836 29.0284V28.7627C55.5696 28.6491 55.6095 28.5354 55.6918 28.4545C55.774 28.3736 55.8894 28.3343 56.0049 28.348H57.425C57.539 28.3352 57.6526 28.3753 57.7324 28.4565C57.8122 28.5378 57.849 28.651 57.8321 28.7627V31.6148C57.849 31.7266 57.8122 31.8397 57.7324 31.921C57.6526 32.0022 57.539 32.0424 57.425 32.0295H57.1741C56.9043 32.0295 56.7623 31.8897 56.7623 31.694V31.5262C56.7593 31.4704 56.7593 31.4144 56.7623 31.3585C56.2037 31.8894 55.4507 32.1751 54.6747 32.1507C53.7238 32.1502 52.8143 31.7682 52.1559 31.0928C51.4976 30.4174 51.1473 29.507 51.1859 28.5717C51.1517 27.6009 51.5261 26.6593 52.2206 25.9694C52.9151 25.2794 53.8682 24.9024 54.8546 24.9274Z" fill="#3C3C3B"/>
<path fill-rule="evenodd" clip-rule="evenodd" d="M61.6521 28.9305H61.4391C60.303 28.9305 58.4616 29.1774 58.4663 30.6268C58.4754 31.0512 58.6618 31.4533 58.9816 31.7381C59.3014 32.023 59.7263 32.1654 60.1563 32.132C60.8203 32.1248 61.4301 31.7695 61.7563 31.2C61.7485 31.2728 61.7485 31.3462 61.7563 31.419V31.6147C61.7393 31.7265 61.7762 31.8397 61.8559 31.9209C61.9357 32.0022 62.0493 32.0423 62.1634 32.0295H62.5042C62.6201 32.0451 62.7367 32.0065 62.8194 31.9251C62.9021 31.8436 62.9414 31.7288 62.9255 31.6147V28.8885C62.9255 27.6209 62.135 26.894 60.8142 26.894C60.2336 26.8986 59.6625 27.0391 59.148 27.304C59.0438 27.3484 58.9653 27.4364 58.9342 27.5438C58.903 27.6513 58.9224 27.7668 58.987 27.8586L59.0864 28.045C59.1298 28.1477 59.2175 28.226 59.3256 28.2584C59.4336 28.2909 59.5508 28.2741 59.645 28.2128C59.9692 28.0326 60.3332 27.9334 60.7054 27.9239C60.9573 27.8887 61.2117 27.9688 61.3961 28.1413C61.5806 28.3138 61.6749 28.5598 61.6521 28.8093V28.9305ZM61.6616 29.8718C61.6874 30.5467 61.175 31.1246 60.4923 31.1907C60.2996 31.213 60.1062 31.1545 59.9594 31.0295C59.8127 30.9045 59.726 30.7246 59.7207 30.5336C59.7207 29.7833 60.8095 29.6854 61.4485 29.6854H61.6616V29.8718Z" fill="#3C3C3B"/>
<path d="M64.2035 28.073H63.9337C63.8188 28.0875 63.7038 28.048 63.6229 27.9666C63.542 27.8851 63.5046 27.771 63.5218 27.6583V27.4905C63.5079 27.3769 63.5478 27.2632 63.63 27.1823C63.7122 27.1013 63.8277 27.0621 63.9431 27.0758H64.2319V26.0505C64.2128 25.9307 64.2541 25.8092 64.3426 25.7248C64.4311 25.6404 64.5558 25.6037 64.6769 25.6264H65.0745C65.189 25.613 65.3035 25.6517 65.3855 25.7315C65.4675 25.8114 65.5081 25.9236 65.4958 26.0365V27.0618H66.2343C66.3493 27.0499 66.4636 27.0898 66.5453 27.1703C66.6271 27.2508 66.6676 27.3633 66.6556 27.4765V27.6396C66.6708 27.7519 66.6327 27.8648 66.5523 27.9458C66.4719 28.0268 66.3581 28.0669 66.2437 28.0544H65.4958V30.0024C65.4647 30.2358 65.5364 30.4712 65.6929 30.6493C65.8493 30.8273 66.0756 30.9311 66.3147 30.9344C66.6272 30.9624 66.736 31.0602 66.736 31.3352V31.6847C66.736 31.9783 66.5656 32.0948 66.2153 32.0948C65.3064 32.0948 64.2272 31.6288 64.2272 30.2587L64.2035 28.073Z" fill="#3C3C3B"/>
<path fill-rule="evenodd" clip-rule="evenodd" d="M71.9715 29.2846C71.9715 27.9052 71.1621 26.894 69.7136 26.894C69.0091 26.8769 68.3298 27.1518 67.8411 27.6515C67.3524 28.1512 67.0992 28.83 67.1432 29.5223C67.1265 30.2366 67.4123 30.9255 67.9322 31.424C68.4521 31.9226 69.1591 32.1858 69.884 32.1507C70.4911 32.1449 71.0839 31.9686 71.5929 31.6427C71.6916 31.5936 71.7636 31.5046 71.79 31.3988C71.8164 31.2931 71.7945 31.1813 71.7301 31.0928L71.6118 30.8971C71.484 30.6687 71.3041 30.6408 71.0532 30.7573C70.725 30.9644 70.3447 31.0773 69.955 31.0835C69.5669 31.1012 69.1877 30.9662 68.9009 30.7083C68.614 30.4504 68.4432 30.0908 68.426 29.7087H71.5313C71.7698 29.7063 71.964 29.5193 71.9715 29.2846ZM70.4474 28.1699C70.6427 28.3816 70.7388 28.6643 70.7123 28.9491H68.4543C68.5127 28.3216 69.0449 27.8399 69.685 27.8353C69.9755 27.8367 70.2521 27.9581 70.4474 28.1699Z" fill="#3C3C3B"/>
<path d="M72.3836 27.4905C72.3289 27.3809 72.3408 27.2505 72.4145 27.1524C72.4883 27.0543 72.6115 27.0049 72.7339 27.0244H73.2073C73.4333 27.0028 73.6345 27.1654 73.657 27.3879L74.4806 30.2866C74.5422 30.5522 74.58 30.8178 74.58 30.8178C74.58 30.8178 74.6226 30.5522 74.6936 30.2866L75.5646 27.374C75.5988 27.1491 75.8088 26.992 76.038 27.0198H76.4167C76.6459 26.992 76.8559 27.1491 76.8901 27.374L77.7422 30.3052C77.793 30.4791 77.8294 30.6568 77.851 30.8365C77.851 30.8365 77.8936 30.5708 77.9646 30.3052L78.7741 27.374C78.8037 27.1453 79.015 26.983 79.2475 27.0105H79.7209C79.8432 26.991 79.9664 27.0403 80.0402 27.1384C80.1139 27.2365 80.1259 27.367 80.0712 27.4765L78.7599 31.6707C78.7149 31.8879 78.5107 32.0367 78.2865 32.0155H77.6143C77.3878 32.0338 77.1837 31.8811 77.141 31.6613L76.3741 29.1495C76.3221 28.9719 76.281 28.7914 76.251 28.6089C76.2182 28.7912 76.1755 28.9717 76.1232 29.1495L75.309 31.6846C75.2748 31.9095 75.0649 32.0666 74.8357 32.0388H74.1445C73.9197 32.0622 73.7141 31.9124 73.6712 31.694L72.3836 27.4905Z" fill="#3C3C3B"/>
<path fill-rule="evenodd" clip-rule="evenodd" d="M83.5834 28.9305H83.3752C82.2343 28.9305 80.3977 29.1774 80.3882 30.6268C80.396 31.0508 80.5813 31.4529 80.9004 31.7379C81.2195 32.0229 81.6439 32.1655 82.0734 32.132C82.7378 32.1257 83.348 31.7702 83.6734 31.2C83.6657 31.2728 83.6657 31.3462 83.6734 31.419V31.6147C83.6561 31.7274 83.6935 31.8415 83.7745 31.923C83.8554 32.0045 83.9704 32.0439 84.0852 32.0295H84.4355C84.5514 32.0451 84.668 32.0065 84.7508 31.9251C84.8335 31.8436 84.8727 31.7288 84.8568 31.6147V28.8885C84.8568 27.6209 84.0663 26.894 82.7503 26.894C82.1682 26.8987 81.5956 27.0393 81.0793 27.304C80.9751 27.3484 80.8967 27.4364 80.8655 27.5438C80.8343 27.6513 80.8537 27.7668 80.9184 27.8586L81.0178 28.045C81.0622 28.148 81.1508 28.2262 81.2596 28.2586C81.3683 28.291 81.4861 28.2742 81.5811 28.2128C81.9034 28.0324 82.266 27.9332 82.6367 27.9239C82.8886 27.8887 83.143 27.9688 83.3275 28.1413C83.5119 28.3138 83.6062 28.5598 83.5834 28.8093V28.9305ZM83.6119 29.8718C83.6372 30.5516 83.1168 31.1315 82.4284 31.1907H82.4237C82.2345 31.2075 82.0467 31.1464 81.9049 31.0218C81.7632 30.8973 81.6802 30.7205 81.6758 30.5336C81.6758 29.7833 82.7645 29.6854 83.4036 29.6854H83.6119V29.8718Z" fill="#3C3C3B"/>
<path d="M85.9503 32.9709C86.062 33.0266 86.1849 33.0569 86.3101 33.0594C86.6923 33.0196 87.0122 32.7563 87.1196 32.393L87.3089 31.927L85.3728 27.4905C85.2403 27.2016 85.3728 27.0245 85.69 27.0245H86.2296C86.447 27.016 86.6423 27.1544 86.703 27.36L87.6497 29.9184C87.7397 30.1841 87.8391 30.5942 87.8391 30.5942H87.8722C87.8722 30.5942 87.9622 30.2027 88.0379 29.9371L88.9373 27.3693C88.9823 27.1521 89.1865 27.0033 89.4107 27.0245H89.9077C90.2202 27.0245 90.348 27.2109 90.2486 27.4905L88.1515 32.7845C87.8968 33.5733 87.1508 34.1075 86.3101 34.1033C86.066 34.0978 85.8252 34.0472 85.6 33.9542C85.4934 33.92 85.409 33.8388 85.3719 33.7346C85.3348 33.6305 85.3491 33.5152 85.4107 33.4229L85.5006 33.2085C85.5598 33.022 85.7597 32.9163 85.9503 32.9709Z" fill="#3C3C3B"/>
<path fill-rule="evenodd" clip-rule="evenodd" d="M78.1823 12.8668H76.374V0L85.6995 6.83651L84.6202 8.26719L78.1823 3.54641V12.8668ZM101.467 18.3938L100.388 19.8245L107.257 24.8575L100.417 29.4711L101.439 30.939L110.367 24.9181L101.467 18.3938ZM78.1823 44.4629V35.0586H76.374V47.8462L85.6711 41.5736L84.6486 40.1009L78.1823 44.4629Z" fill="url(#paint0_linear_62_1634)"/>
<defs>
<linearGradient id="paint0_linear_62_1634" x1="76.374" y1="0" x2="114.488" y2="3.54571" gradientUnits="userSpaceOnUse">
<stop offset="0.0405405" stop-color="#46AF93"/>
<stop offset="1" stop-color="#475DA7"/>
</linearGradient>
</defs>
</svg>
