<svg height="86" width="222" xmlns="http://www.w3.org/2000/svg" viewBox="0 0 321.02 129.12"><path d="M166.94 38.14c-1.45 1.84-3.8 2.98-6.15 2.98s-4.27-.85-5.75-2.4c-1.5-1.56-2.32-3.75-2.32-6.15s.82-4.59 2.32-6.15c1.48-1.54 3.52-2.4 5.75-2.4s4.67 1.14 6.15 2.98l2.87-2.87c-2.2-2.53-5.52-3.98-9.12-3.98-3.41 0-6.53 1.26-8.8 3.54-2.27 2.29-3.52 5.44-3.52 8.88s1.25 6.59 3.52 8.88c2.27 2.28 5.41 3.54 8.83 3.54 3.61 0 6.92-1.45 9.09-3.98l-2.87-2.87ZM211.34 44.58h4.44V20.56h-3.94v16.78l-9.9-16.78h-4.68v24.02h3.91V27.29l10.17 17.29zM238.8 38.14c-1.45 1.84-3.8 2.98-6.15 2.98s-4.27-.85-5.75-2.4c-1.5-1.56-2.32-3.75-2.32-6.15s.82-4.59 2.32-6.15c1.48-1.54 3.52-2.4 5.75-2.4s4.67 1.14 6.15 2.98l2.87-2.87c-2.2-2.53-5.52-3.98-9.12-3.98-3.41 0-6.53 1.26-8.8 3.54-2.27 2.29-3.52 5.44-3.52 8.88s1.25 6.59 3.52 8.88c2.27 2.28 5.41 3.54 8.83 3.54 3.61 0 6.92-1.45 9.09-3.98l-2.87-2.87ZM249.89 24.16h10.87v-3.6h-14.98v24.02h14.98v-3.6h-10.87v-6.81h9.17v-3.6h-9.17v-6.41zM157.25 68.27l5.6 8.71h4.78l-6.1-9.13.06-.02c3.17-1.02 5.22-3.85 5.22-7.2 0-4.45-3.51-7.67-8.36-7.67h-8.75v24.02h4.11v-8.71h3.44Zm-3.44-11.81h3.86c3.04 0 4.79 1.52 4.79 4.18s-1.78 4.14-4.76 4.14h-3.89v-8.32ZM273.44 35.81l5.6 8.71h4.78l-6.1-9.13.06-.02c3.17-1.02 5.22-3.85 5.22-7.2 0-4.45-3.51-7.67-8.36-7.67h-8.75v24.02H270v-8.71h3.44ZM270 24h3.86c3.04 0 4.79 1.52 4.79 4.18s-1.78 4.14-4.76 4.14H270V24ZM263.23 68.27l5.6 8.71h4.78l-6.1-9.13.06-.02c3.17-1.02 5.22-3.85 5.22-7.2 0-4.45-3.51-7.67-8.36-7.67h-8.75v24.02h4.11v-8.71h3.44Zm-3.44-11.81h3.86c3.04 0 4.79 1.52 4.79 4.18s-1.78 4.14-4.76 4.14h-3.89v-8.32ZM176.46 56.56h10.87v-3.6h-14.98v24.01h14.98v-3.59h-10.87v-6.82h9.16v-3.6h-9.16v-6.4zM199.69 77.38c4.97 0 8.18-2.8 8.18-7.13 0-3.27-1.97-5.66-5.53-6.72l-2.8-.85c-2.44-.71-3.48-1.76-3.48-3.49 0-1.86 1.53-3.15 3.73-3.15 1.82 0 3.3.69 4.78 2.23l2.67-2.67c-1.8-2-4.36-3.06-7.38-3.06-4.81 0-8.05 2.89-8.05 7.19 0 1.54.48 2.9 1.43 4.02.96 1.14 2.35 1.99 4.14 2.53l3.35.99c1.91.57 2.97 1.77 2.97 3.35 0 2.01-1.53 3.25-4 3.25-2.16 0-4.06-1-5.81-3.05l-2.7 2.7c2.06 2.44 5.16 3.85 8.51 3.85ZM216.53 56.56h10.87v-3.6h-14.98v24.01h14.98v-3.59h-10.87v-6.82h9.16v-3.6h-9.16v-6.4zM236.68 71.55h9.01l1.81 5.43h4.52l-8.23-24.02h-4.92l-8.27 24.02h4.24l1.84-5.43Zm4.54-13.51 3.37 10.12h-6.78l3.41-10.12ZM178.1 39.15h9.01l1.81 5.43h4.52l-8.23-24.02h-4.92l-8.27 24.02h4.24l1.84-5.43Zm4.54-13.51 3.37 10.12h-6.78l3.41-10.12ZM294.89 59.4l2.87-2.87c-2.2-2.53-5.52-3.98-9.12-3.98-3.41 0-6.53 1.26-8.8 3.54-2.27 2.29-3.52 5.44-3.52 8.88s1.25 6.59 3.52 8.88c2.27 2.28 5.41 3.54 8.83 3.54 3.61 0 6.92-1.45 9.09-3.98l-2.87-2.87c-1.45 1.84-3.8 2.98-6.15 2.98s-4.27-.85-5.75-2.4c-1.5-1.56-2.32-3.75-2.32-6.15s.82-4.59 2.32-6.15c1.48-1.54 3.52-2.4 5.75-2.4s4.67 1.14 6.15 2.98ZM316.87 76.97h4.15V52.96h-4.15v10H306.4v-10h-4.11v24.01h4.11V66.56h10.47V76.97zM158.64 110.13c5.72 0 8.96-3.17 8.96-8.49V85.7h-4.11v15.66c-.02 1.55-.46 2.85-1.34 3.74-.88.89-1.97 1.36-3.51 1.36s-2.65-.47-3.53-1.36c-.87-.89-1.34-2.18-1.34-3.74V85.7h-4.11v15.94c0 5.32 3.27 8.49 8.98 8.49ZM179.33 98.6l8.18 11.12h5.01l-10.31-14 9.95-10.02h-5.47l-10.14 10.51V85.7h-4.11v24.02h4.11v-8.31l2.78-2.81z" style="stroke-width:0"/><circle cx="104.29" cy="118.93" r="5.74" style="fill:#00007e;stroke-width:0"/><circle cx="105.82" cy="27.61" r="5.74" style="fill:#009cee;stroke-width:0"/><circle cx="110.23" cy="42.41" r="5.74" style="fill:#ff0087;stroke-width:0"/><circle cx="114.47" cy="17.52" r="5.74" style="fill:#00007e;stroke-width:0"/><circle cx="99.82" cy="11.7" r="8" style="fill:#ff0087;stroke-width:0"/><circle cx="52.86" cy="13.18" r="8.16" style="fill:#ff0087;stroke-width:0"/><circle cx="34.32" cy="53.16" r="8" style="fill:#ff0087;stroke-width:0"/><circle cx="48.7" cy="108.46" r="8" style="fill:#ff0087;stroke-width:0"/><circle cx="76.88" cy="104.97" r="8" style="fill:#ff0087;stroke-width:0"/><circle cx="45.12" cy="81.37" r="8.6" style="fill:#00007e;stroke-width:0"/><circle cx="124.3" cy="26.66" r="5.74" style="fill:#ff0087;stroke-width:0"/><circle cx="92.88" cy="30.11" r="5.74" style="fill:#00007e;stroke-width:0"/><circle cx="85.01" cy="18.94" r="5.74" style="fill:#00007e;stroke-width:0"/><circle cx="83.25" cy="5.74" r="5.74" style="fill:#ff0087;stroke-width:0"/><circle cx="71.21" cy="29.52" r="5.74" style="fill:#00007e;stroke-width:0"/><circle cx="68.37" cy="7.28" r="5.74" style="fill:#009cee;stroke-width:0"/><circle cx="54.25" cy="29.31" r="5.74" style="fill:#00007e;stroke-width:0"/><circle cx="51.58" cy="43.27" r="5.74" style="fill:#00007e;stroke-width:0"/><circle cx="38.03" cy="22.53" r="5.74" style="fill:#009cee;stroke-width:0"/><circle cx="30.09" cy="35.78" r="5.74" style="fill:#00007e;stroke-width:0"/><circle cx="45.96" cy="64.77" r="5.74" style="fill:#00007e;stroke-width:0"/><circle cx="25.3" cy="68.98" r="5.74" style="fill:#009cee;stroke-width:0"/><circle cx="31.28" cy="91.26" r="5.74" style="fill:#009cee;stroke-width:0"/><circle cx="57.01" cy="92.62" r="5.74" style="fill:#00007e;stroke-width:0"/><circle cx="61.88" cy="118.49" r="5.74" style="fill:#00007e;stroke-width:0"/><circle cx="75.27" cy="122.55" r="5.74" style="fill:#009cee;stroke-width:0"/><circle cx="90.35" cy="113.88" r="5.74" style="fill:#00007e;stroke-width:0"/><circle cx="99.3" cy="96.87" r="5.74" style="fill:#00007e;stroke-width:0"/><circle cx="109.75" cy="88.32" r="5.74" style="fill:#00007e;stroke-width:0"/><circle cx="119.09" cy="97.93" r="5.74" style="fill:#ff0087;stroke-width:0"/><circle cx="126.44" cy="105.94" r="3.36" style="fill:#00007e;stroke-width:0"/><circle cx="108.55" cy="102.93" r="3.36" style="fill:#009cee;stroke-width:0"/><circle cx="100.18" cy="108.33" r="3.36" style="fill:#ff0087;stroke-width:0"/><circle cx="89.17" cy="101.16" r="3.36" style="fill:#00007e;stroke-width:0"/><circle cx="94.52" cy="124.38" r="3.36" style="fill:#009cee;stroke-width:0"/><circle cx="85.87" cy="125.76" r="3.36" style="fill:#ff0087;stroke-width:0"/><circle cx="62.31" cy="106.81" r="3.36" style="fill:#009cee;stroke-width:0"/><circle cx="66" cy="98.24" r="3.36" style="fill:#00007e;stroke-width:0"/><circle cx="42.09" cy="96.06" r="3.36" style="fill:#ff0087;stroke-width:0"/><circle cx="35.09" cy="102.93" r="3.36" style="fill:#00007e;stroke-width:0"/><circle cx="33.21" cy="115.02" r="3.36" style="fill:#009cee;stroke-width:0"/><circle cx="22.11" cy="100.27" r="3.36" style="fill:#ff0087;stroke-width:0"/><circle cx="22.06" cy="81.37" r="3.36" style="fill:#00007e;stroke-width:0"/><circle cx="31.78" cy="78.1" r="3.36" style="fill:#ff0087;stroke-width:0"/><circle cx="35.85" cy="68.5" r="3.36" style="fill:#ff0087;stroke-width:0"/><circle cx="18.76" cy="57.28" r="3.36" style="fill:#009cee;stroke-width:0"/><circle cx="47.93" cy="53.87" r="3.36" style="fill:#ff0087;stroke-width:0"/><circle cx="22.06" cy="46.23" r="3.36" style="fill:#00007e;stroke-width:0"/><circle cx="40.43" cy="40.67" r="3.36" style="fill:#009cee;stroke-width:0"/><circle cx="43.68" cy="31.82" r="3.36" style="fill:#ff0087;stroke-width:0"/><circle cx="61.73" cy="37.01" r="3.36" style="fill:#00007e;stroke-width:0"/><circle cx="63.39" cy="21.5" r="3.36" style="fill:#ff0087;stroke-width:0"/><circle cx="73.23" cy="17.86" r="3.36" style="fill:#00007e;stroke-width:0"/><circle cx="82.07" cy="29.81" r="3.36" style="fill:#00007e;stroke-width:0"/><circle cx="101.03" cy="37.18" r="3.36" style="fill:#ff0087;stroke-width:0"/><circle cx="115.52" cy="32.77" r="3.36" style="fill:#00007e;stroke-width:0"/><circle cx="3.36" cy="43.27" r="3.36" style="fill:#009cee;stroke-width:0"/><circle cx="19.89" cy="26.66" r="3.36" style="fill:#ff0087;stroke-width:0"/><circle cx="9.92" cy="70.64" r="3.36" style="fill:#ff0087;stroke-width:0"/><circle cx="115.66" cy="111.63" r="5.74" style="fill:#ff0087;stroke-width:0"/><circle cx="6.56" cy="90.17" r="3.36" style="fill:#00007e;stroke-width:0"/></svg>
