<?xml version="1.0" encoding="UTF-8"?>
<svg width="103px" height="51px" viewBox="0 0 103 51" version="1.1" xmlns="http://www.w3.org/2000/svg" xmlns:xlink="http://www.w3.org/1999/xlink">
    <g id="Re-integration-of-wheel" stroke="none" stroke-width="1" fill="none" fill-rule="evenodd">
        <g id="All-wheels" transform="translate(-41.000000, -422.000000)">
            <g id="Group-17-Copy-6" transform="translate(41.000000, 422.000000)">
                <g id="Group-16-Copy-2" transform="translate(17.000000, 0.000000)" fill="#4682B4" stroke="#FFFFFF">
                    <path d="M6.7323836,14.9872946 L17.138947,22.5478108 C14.7755114,25.965672 13.4647646,30.0021547 13.3672537,34.1560644 L13.3672537,34.1560644 L0.503659927,34.1560644 C0.604257225,27.2850918 2.77630566,20.6031457 6.7323836,14.9872946 L6.7323836,14.9872946 Z" id="Segment-1"></path>
                    <path d="M23.6256582,2.3308024 L27.6005725,14.5674924 C23.680146,15.945045 20.2481364,18.4359835 17.7268759,21.7388982 L17.7268759,21.7388982 L7.32019133,14.1782939 C11.4389937,8.68072116 17.1240343,4.55082901 23.6256582,2.3308024 L23.6256582,2.3308024 Z" id="Segment-2"></path>
                    <path d="M24.5766371,2.02154621 C31.1404392,-0.00718595872 38.1664915,-0.00718595872 44.7302936,2.02154621 L44.7302936,2.02154621 L40.7554004,14.2581715 C36.7747297,13.065921 32.532201,13.065921 28.5515303,14.2581715 L28.5515303,14.2581715 Z" id="Segment-3"></path>
                    <path d="M45.6812725,2.3308024 C52.1828964,4.55082901 57.867937,8.68072116 61.9867394,14.1782939 L61.9867394,14.1782939 L51.5800548,21.7388982 C49.0587943,18.4359835 45.6267847,15.945045 41.7063582,14.5674924 L41.7063582,14.5674924 Z" id="Segment-4"></path>
                    <path d="M62.5745471,14.9872946 C66.530625,20.6031457 68.7026735,27.2850918 68.8032708,34.1560644 L68.8032708,34.1560644 L55.939677,34.1560644 C55.8421661,30.0021547 54.5314193,25.965672 52.1679837,22.5478108 L52.1679837,22.5478108 Z" id="Segment-5"></path>
                </g>
                <text id="Platinum-metadata" font-family="museo-sans-rounded" font-size="12" font-weight="normal" fill="#8E9AA0">
                    <tspan x="0" y="48">Platinum metadata</tspan>
                </text>
            </g>
        </g>
    </g>
</svg>