<?xml version="1.0" encoding="UTF-8"?>
<svg width="18px" height="18px" viewBox="0 0 18 18" version="1.1" xmlns="http://www.w3.org/2000/svg" xmlns:xlink="http://www.w3.org/1999/xlink">
    <!-- Generator: Sketch 62 (91390) - https://sketch.com -->
    <title>icon / search</title>
    <desc>Created with Sketch.</desc>
    <defs>
        <path d="M12.5,11 L11.71,11 L11.43,10.73 C12.41,9.59 13,8.11 13,6.5 C13,2.91 10.09,0 6.5,0 C2.91,0 0,2.91 0,6.5 C0,10.09 2.91,13 6.5,13 C8.11,13 9.59,12.41 10.73,11.43 L11,11.71 L11,12.5 L16,17.49 L17.49,16 L12.5,11 Z M6.5,11 C4.01,11 2,8.99 2,6.5 C2,4.01 4.01,2 6.5,2 C8.99,2 11,4.01 11,6.5 C11,8.99 8.99,11 6.5,11 Z" id="search"></path>
    </defs>
    <g id="Page-1" stroke="none" stroke-width="1" fill-rule="evenodd">
        <g id="Artboard" transform="translate(-161.000000, -999.000000)">
            <g id="icon-/-search" transform="translate(161.000000, 999.000000)">
                <g id="ic_search_24px">
                    <mask id="mask-search">
                        <use xlink:href="#search"></use>
                    </mask>
                    <use id="Shape" fill-rule="nonzero" xlink:href="#search"></use>
                    <!-- <use id="Shape" fill="#2c8267" fill-rule="nonzero" xlink:href="#search"></use> -->
                </g>
            </g>
        </g>
    </g>
</svg>