<svg width="20" height="20" viewBox="0 0 20 20" fill="none" xmlns="http://www.w3.org/2000/svg">
<g clip-path="url(#clip0_1182_78071)">
<path d="M9.37517 3.75H11.8752C12.0409 3.75 12.1999 3.68415 12.3171 3.56694C12.4343 3.44973 12.5002 3.29076 12.5002 3.125V1.875C12.5002 1.70924 12.4343 1.55027 12.3171 1.43306C12.1999 1.31585 12.0409 1.25 11.8752 1.25H9.37517C9.20941 1.25 9.05044 1.31585 8.93323 1.43306C8.81602 1.55027 8.75017 1.70924 8.75017 1.875V3.125C8.75017 3.29076 8.81602 3.44973 8.93323 3.56694C9.05044 3.68415 9.20941 3.75 9.37517 3.75ZM9.37517 8.75H14.3752C14.5409 8.75 14.6999 8.68415 14.8171 8.56694C14.9343 8.44973 15.0002 8.29076 15.0002 8.125V6.875C15.0002 6.70924 14.9343 6.55027 14.8171 6.43306C14.6999 6.31585 14.5409 6.25 14.3752 6.25H9.37517C9.20941 6.25 9.05044 6.31585 8.93323 6.43306C8.81602 6.55027 8.75017 6.70924 8.75017 6.875V8.125C8.75017 8.29076 8.81602 8.44973 8.93323 8.56694C9.05044 8.68415 9.20941 8.75 9.37517 8.75ZM19.3752 16.25H9.37517C9.20941 16.25 9.05044 16.3158 8.93323 16.4331C8.81602 16.5503 8.75017 16.7092 8.75017 16.875V18.125C8.75017 18.2908 8.81602 18.4497 8.93323 18.5669C9.05044 18.6842 9.20941 18.75 9.37517 18.75H19.3752C19.5409 18.75 19.6999 18.6842 19.8171 18.5669C19.9343 18.4497 20.0002 18.2908 20.0002 18.125V16.875C20.0002 16.7092 19.9343 16.5503 19.8171 16.4331C19.6999 16.3158 19.5409 16.25 19.3752 16.25ZM9.37517 13.75H16.8752C17.0409 13.75 17.1999 13.6842 17.3171 13.5669C17.4343 13.4497 17.5002 13.2908 17.5002 13.125V11.875C17.5002 11.7092 17.4343 11.5503 17.3171 11.4331C17.1999 11.3158 17.0409 11.25 16.8752 11.25H9.37517C9.20941 11.25 9.05044 11.3158 8.93323 11.4331C8.81602 11.5503 8.75017 11.7092 8.75017 11.875V13.125C8.75017 13.2908 8.81602 13.4497 8.93323 13.5669C9.05044 13.6842 9.20941 13.75 9.37517 13.75ZM0.625174 6.25H2.50017V18.125C2.50017 18.2908 2.56602 18.4497 2.68323 18.5669C2.80044 18.6842 2.95941 18.75 3.12517 18.75H4.37517C4.54093 18.75 4.6999 18.6842 4.81712 18.5669C4.93433 18.4497 5.00017 18.2908 5.00017 18.125V6.25H6.87517C7.43025 6.25 7.71072 5.57656 7.31697 5.1832L4.19197 1.4332C4.07477 1.31608 3.91586 1.25029 3.75017 1.25029C3.58448 1.25029 3.42558 1.31608 3.30838 1.4332L0.183377 5.1832C-0.20881 5.57578 0.0697051 6.25 0.625174 6.25Z" fill="#475DA7"/>
</g>
<defs>
<clipPath id="clip0_1182_78071">
<rect width="20" height="20" fill="white"/>
</clipPath>
</defs>
</svg>
