<svg width="20" height="20" viewBox="-1 -1 22 22" fill="none" xmlns="http://www.w3.org/2000/svg">
    <path fill-rule="evenodd" clip-rule="evenodd" d="M15.8246 18.125H18.125C18.4702 18.125 18.75 18.4048 18.75 18.75C18.75 19.0952 18.4702 19.375 18.125 19.375H13.75C13.4048 19.375 13.125 19.0952 13.125 18.75V14.375C13.125 14.0298 13.4048 13.75 13.75 13.75C14.0952 13.75 14.375 14.0298 14.375 14.375V17.5733C16.9879 16.0583 18.75 13.2317 18.75 10C18.75 5.17521 14.8248 1.25 10 1.25V0C15.5229 0 20 4.47708 20 10C20 13.3487 18.3521 16.3104 15.8246 18.125ZM5.41667 2.55542C2.91979 4.09792 1.25 6.85563 1.25 10C1.25 14.8248 5.17521 18.75 10 18.75V20C4.47708 20 0 15.5229 0 10C0 6.51937 1.78021 3.45729 4.47792 1.66667H1.77083C1.42562 1.66667 1.14583 1.38688 1.14583 1.04167C1.14583 0.696458 1.42562 0.416667 1.77083 0.416667H6.14583C6.49104 0.416667 6.66667 0.696458 6.66667 1.04167V5.41667C6.66667 5.76188 6.38687 6.04167 6.04167 6.04167C5.69646 6.04167 5.41667 5.76188 5.41667 5.41667V2.55542Z" />
</svg>
