<svg xmlns="http://www.w3.org/2000/svg" xmlns:xlink="http://www.w3.org/1999/xlink"><path d="M2.74074074,1 C3.25357658,1 3.6762479,1.38604019 3.73401301,1.88337887 L3.74074074,2 L3.74074074,21.43 L22,21.4300315 C22.5522847,21.4300315 23,21.8777468 23,22.4300315 C23,22.9428674 22.6139598,23.3655387 22.1166211,23.4233038 L22,23.4300315 L2.74074074,23.4300315 C2.18845599,23.4300315 1.74074074,22.9823163 1.74074074,22.4300315 L1.74074074,2 C1.74074074,1.44771525 2.18845599,1 2.74074074,1 Z M12.3703704,4.14308177 C12.8832062,4.14308177 13.3058775,4.52912196 13.3636426,5.02646065 L13.3703704,5.14308177 L13.3703704,19.2869497 C13.3703704,19.8392345 12.9226551,20.2869497 12.3703704,20.2869497 C11.8575345,20.2869497 11.4348632,19.9009096 11.3770981,19.4035709 L11.3703704,19.2869497 L11.3703704,5.14308177 C11.3703704,4.59079702 11.8180856,4.14308177 12.3703704,4.14308177 Z M16.8148148,7.28616354 C17.3276507,7.28616354 17.750322,7.67220373 17.8080871,8.16954242 L17.8148148,8.28616354 L17.8148148,19.2869497 C17.8148148,19.8392345 17.3670996,20.2869497 16.8148148,20.2869497 C16.301979,20.2869497 15.8793077,19.9009096 15.8215425,19.4035709 L15.8148148,19.2869497 L15.8148148,8.28616354 C15.8148148,7.73387879 16.2625301,7.28616354 16.8148148,7.28616354 Z M7.92592593,11.2150158 C8.43876177,11.2150158 8.86143309,11.6010559 8.91919819,12.0983946 L8.92592593,12.2150158 L8.92592593,19.2869497 C8.92592593,19.8392345 8.47821068,20.2869497 7.92592593,20.2869497 C7.41309009,20.2869497 6.99041877,19.9009096 6.93265366,19.4035709 L6.92592593,19.2869497 L6.92592593,12.2150158 C6.92592593,11.662731 7.37364118,11.2150158 7.92592593,11.2150158 Z"></path></svg>