<svg xmlns="http://www.w3.org/2000/svg" xmlns:xlink="http://www.w3.org/1999/xlink"><path d="M11,3.55271368e-15 C17.0322075,3.55271368e-15 22,3.97437127 22,9 C22,9.19397164 21.9925995,9.38637722 21.978023,9.5770487 C23.2665679,10.8047361 24,12.3485987 24,14 C24,15.6083904 23.3046663,17.1157926 22.0770935,18.3283051 L22,18.401 L22,23.618034 L16.548,20.892 L16.4107223,20.9122125 C16.0984947,20.9509307 15.7853656,20.9770413 15.4714497,20.9901463 L15,21 C11.9432595,21 9.14537734,19.8087021 7.49814363,17.8692765 L2,20.6178843 L2,14.166 L1.83136272,13.9656728 C0.719807753,12.595729 0.0783463698,10.998817 0.00672653571,9.31641722 L0.00672653571,9.31641722 L0,9 C0,3.97437127 4.96779252,3.55271368e-15 11,3.55271368e-15 Z M21.3888309,11.9782266 L21.3400716,12.0888747 C19.7973215,15.5612816 15.7252292,18 11,18 C10.9409172,18 10.8818789,17.9996057 10.8228884,17.9988186 C11.9977015,18.6306581 13.4483029,19 15,19 C15.3890899,19 15.77771,18.9754346 16.1657644,18.9272683 L16.5536268,18.8712706 L16.8733754,18.8186537 L20,20.382 L20,17.4981693 L20.3515862,17.1987119 C21.4205016,16.288282 22,15.166042 22,14 C22,13.2980698 21.7896042,12.6118743 21.3888309,11.9782266 Z M11,2 C5.98655285,2 2,5.18935243 2,9 C2,10.4812988 2.60688048,11.9020612 3.72996335,13.1015137 L3.72996335,13.1015137 L4,13.3899129 L4,17.381 L7.7248605,15.5200708 L8.09102488,15.6178617 C9.03279428,15.8693785 10.0089942,16 11,16 C16.0134472,16 20,12.8106476 20,9 C20,5.18935243 16.0134472,2 11,2 Z"></path></svg>