<svg xmlns="http://www.w3.org/2000/svg" xmlns:xlink="http://www.w3.org/1999/xlink"><path d="M17,8.58578644 L21.4142136,13 L12.5112495,21.902964 L6.62563146,23.3743685 L8.09703598,17.4887505 L17,8.58578644 Z M9.5,1 L12.5,5 L24,5 L24,20 C24,21.5976809 22.75108,22.9036609 21.1762728,22.9949073 L21,23 L15,23 L15,21 L21,21 C21.5128358,21 21.9355072,20.6139598 21.9932723,20.1166211 L22,20 L22,7 L11.5,7 L8.5,3 L2,3 L2,20 C2,20.5128358 2.38604019,20.9355072 2.88337887,20.9932723 L3,21 L5,21 L5,23 L3,23 C1.40231912,23 0.0963391206,21.75108 0.00509269341,20.1762728 L0,20 L0,1 L9.5,1 Z M17,11.415 L9.903,18.511 L9.374,20.625 L11.488,20.096 L18.585,13 L17,11.415 Z"></path></svg>