<svg width="23" height="6" viewBox="0 0 23 6" fill="inherit" xmlns="http://www.w3.org/2000/svg">
<path fill-rule="evenodd" clip-rule="evenodd" d="M0.5 3C0.5 1.34315 1.84315 0 3.5 0C5.15685 0 6.5 1.34315 6.5 3C6.5 4.65685 5.15685 6 3.5 6C1.84315 6 0.5 4.65685 0.5 3ZM4.5 3C4.5 2.44772 4.05228 2 3.5 2C2.94772 2 2.5 2.44772 2.5 3C2.5 3.55228 2.94772 4 3.5 4C4.05228 4 4.5 3.55228 4.5 3ZM8.5 3C8.5 1.34315 9.84315 0 11.5 0C13.1569 0 14.5 1.34315 14.5 3C14.5 4.65685 13.1569 6 11.5 6C9.84315 6 8.5 4.65685 8.5 3ZM12.5 3C12.5 2.44772 12.0523 2 11.5 2C10.9477 2 10.5 2.44772 10.5 3C10.5 3.55228 10.9477 4 11.5 4C12.0523 4 12.5 3.55228 12.5 3ZM19.5 0C17.8431 0 16.5 1.34315 16.5 3C16.5 4.65685 17.8431 6 19.5 6C21.1569 6 22.5 4.65685 22.5 3C22.5 1.34315 21.1569 0 19.5 0ZM19.5 2C20.0523 2 20.5 2.44772 20.5 3C20.5 3.55228 20.0523 4 19.5 4C18.9477 4 18.5 3.55228 18.5 3C18.5 2.44772 18.9477 2 19.5 2Z" fill="inherit"/>
</svg>
