<svg xmlns="http://www.w3.org/2000/svg" xmlns:xlink="http://www.w3.org/1999/xlink"><path d="M12,0 C18.627417,0 24,5.372583 24,12 C24,18.627417 18.627417,24 12,24 C5.372583,24 0,18.627417 0,12 C0,5.372583 5.372583,0 12,0 Z M12,2 C6.4771525,2 2,6.4771525 2,12 C2,17.5228475 6.4771525,22 12,22 C17.5228475,22 22,17.5228475 22,12 C22,6.4771525 17.5228475,2 12,2 Z M12,17 C12.5522847,17 13,17.4477153 13,18 C13,18.5522847 12.5522847,19 12,19 C11.4477153,19 11,18.5522847 11,18 C11,17.4477153 11.4477153,17 12,17 Z M16.1206874,6.67932807 C17.2209199,8.45981868 16.6379252,10.5411221 14.8741206,12.1384592 L14.3264329,12.6130934 C13.3239342,13.4945028 13.030424,13.9263637 13.0023052,14.4175067 L13,14.5 L13,15.5 L11,15.5 L11,14.5 C11,13.1575019 11.6219948,12.2779887 13.3945335,10.7760576 C14.6203376,9.73739295 14.9648001,8.61342658 14.4193126,7.73067193 C13.9279593,6.93552185 12.1100643,6.73606478 10.4549463,7.39185066 L10.2572088,7.47466675 L9.34254204,7.87887553 L8.53412447,6.04954204 L9.44879121,5.64533325 C11.9582508,4.53635489 14.9712365,4.81918811 16.1206874,6.67932807 Z"></path></svg>