<svg width="28" height="24" viewBox="0 0 28 24" fill="none" xmlns="http://www.w3.org/2000/svg">
<path fill-rule="evenodd" clip-rule="evenodd" d="M28 17.4142V0H8V24H21.4142L28 17.4142ZM10 2H26V16H20V22H10V2Z" fill="#475DA7"/>
<rect x="0.5" y="8.5" width="17" height="9" fill="white"/>
<path d="M2.095 13.95C2.095 13.8133 2.16333 13.745 2.3 13.745H2.535C2.60167 13.745 2.65 13.76 2.68 13.79C2.71 13.82 2.72833 13.8717 2.735 13.945C2.745 14.0883 2.785 14.2117 2.855 14.315C2.92833 14.4183 3.04333 14.47 3.2 14.47C3.32333 14.47 3.43 14.43 3.52 14.35C3.61333 14.2667 3.66 14.13 3.66 13.94V12.005H2.955C2.815 12.005 2.745 11.9367 2.745 11.8V11.66C2.745 11.52 2.815 11.45 2.955 11.45H4.095C4.235 11.45 4.305 11.52 4.305 11.66V13.95C4.305 14.1433 4.27333 14.31 4.21 14.45C4.14667 14.59 4.06167 14.705 3.955 14.795C3.85167 14.885 3.73333 14.9517 3.6 14.995C3.47 15.0383 3.33667 15.06 3.2 15.06C3.06333 15.06 2.92833 15.0383 2.795 14.995C2.66167 14.9483 2.54333 14.88 2.44 14.79C2.33667 14.7 2.25333 14.585 2.19 14.445C2.12667 14.305 2.095 14.14 2.095 13.95ZM4.96078 14.7C4.92078 14.6633 4.89245 14.6233 4.87578 14.58C4.86245 14.5333 4.88078 14.4767 4.93078 14.41L5.04078 14.25C5.08078 14.1933 5.12245 14.1633 5.16578 14.16C5.21245 14.1533 5.26745 14.1683 5.33078 14.205C5.36078 14.225 5.39745 14.25 5.44078 14.28C5.48745 14.31 5.54078 14.3383 5.60078 14.365C5.66411 14.3917 5.73245 14.415 5.80578 14.435C5.88245 14.455 5.96411 14.465 6.05078 14.465C6.21745 14.465 6.34745 14.4283 6.44078 14.355C6.53411 14.2783 6.58078 14.18 6.58078 14.06C6.58078 13.9467 6.53911 13.8533 6.45578 13.78C6.37578 13.7067 6.27411 13.64 6.15078 13.58C6.02745 13.52 5.89411 13.46 5.75078 13.4C5.61078 13.34 5.47911 13.2683 5.35578 13.185C5.23245 13.1017 5.12911 13 5.04578 12.88C4.96578 12.7567 4.92578 12.6033 4.92578 12.42C4.92578 12.2633 4.95578 12.1217 5.01578 11.995C5.07911 11.8683 5.16411 11.76 5.27078 11.67C5.37745 11.58 5.50245 11.5117 5.64578 11.465C5.79245 11.415 5.95078 11.39 6.12078 11.39C6.22411 11.39 6.32245 11.4 6.41578 11.42C6.51245 11.4367 6.59911 11.4583 6.67578 11.485C6.75578 11.5117 6.82578 11.5417 6.88578 11.575C6.94911 11.605 6.99911 11.6333 7.03578 11.66C7.14245 11.7367 7.16411 11.8317 7.10078 11.945L7.01078 12.11C6.97411 12.1833 6.93078 12.22 6.88078 12.22C6.83078 12.22 6.77911 12.2067 6.72578 12.18C6.65245 12.1367 6.56578 12.0933 6.46578 12.05C6.36911 12.0067 6.25078 11.985 6.11078 11.985C5.94411 11.985 5.81245 12.0217 5.71578 12.095C5.61911 12.1683 5.57078 12.265 5.57078 12.385C5.57078 12.495 5.61078 12.5867 5.69078 12.66C5.77411 12.73 5.87745 12.7933 6.00078 12.85C6.12411 12.9067 6.25578 12.965 6.39578 13.025C6.53911 13.0817 6.67245 13.1517 6.79578 13.235C6.91911 13.3183 7.02078 13.4217 7.10078 13.545C7.18411 13.6683 7.22578 13.8233 7.22578 14.01C7.22578 14.1533 7.19911 14.29 7.14578 14.42C7.09245 14.5467 7.01578 14.6583 6.91578 14.755C6.81578 14.8483 6.69245 14.9233 6.54578 14.98C6.40245 15.0333 6.23745 15.06 6.05078 15.06C5.92411 15.06 5.80411 15.0467 5.69078 15.02C5.57745 14.9967 5.47411 14.9667 5.38078 14.93C5.28745 14.8933 5.20411 14.855 5.13078 14.815C5.06078 14.7717 5.00411 14.7333 4.96078 14.7ZM7.61992 13.2C7.61992 12.9467 7.66492 12.71 7.75492 12.49C7.84492 12.27 7.97159 12.0783 8.13492 11.915C8.29826 11.7517 8.49159 11.6233 8.71492 11.53C8.93826 11.4367 9.18492 11.39 9.45492 11.39C9.72492 11.39 9.97159 11.4367 10.1949 11.53C10.4183 11.6233 10.6116 11.7517 10.7749 11.915C10.9383 12.0783 11.0649 12.27 11.1549 12.49C11.2449 12.71 11.2899 12.9467 11.2899 13.2C11.2899 13.46 11.2449 13.7033 11.1549 13.93C11.0649 14.1567 10.9383 14.355 10.7749 14.525C10.6116 14.6917 10.4183 14.8233 10.1949 14.92C9.97159 15.0133 9.72492 15.06 9.45492 15.06C9.18492 15.06 8.93826 15.0133 8.71492 14.92C8.49159 14.8233 8.29826 14.6917 8.13492 14.525C7.97159 14.355 7.84492 14.1567 7.75492 13.93C7.66492 13.7033 7.61992 13.46 7.61992 13.2ZM8.28492 13.2C8.28492 13.38 8.31326 13.5483 8.36992 13.705C8.42992 13.8583 8.51159 13.9917 8.61492 14.105C8.71826 14.2183 8.84159 14.3083 8.98492 14.375C9.12826 14.4383 9.28492 14.47 9.45492 14.47C9.62492 14.47 9.78159 14.4383 9.92492 14.375C10.0683 14.3083 10.1916 14.2183 10.2949 14.105C10.3983 13.9917 10.4783 13.8583 10.5349 13.705C10.5949 13.5483 10.6249 13.38 10.6249 13.2C10.6249 13.0267 10.5949 12.8667 10.5349 12.72C10.4783 12.57 10.3983 12.44 10.2949 12.33C10.1916 12.22 10.0683 12.135 9.92492 12.075C9.78159 12.0117 9.62492 11.98 9.45492 11.98C9.28492 11.98 9.12826 12.0117 8.98492 12.075C8.84159 12.135 8.71826 12.22 8.61492 12.33C8.51159 12.44 8.42992 12.57 8.36992 12.72C8.31326 12.8667 8.28492 13.0267 8.28492 13.2ZM11.9022 11.66C11.9022 11.52 11.9705 11.45 12.1072 11.45H12.3772C12.4939 11.45 12.5772 11.4967 12.6272 11.59L13.8872 13.5C13.9205 13.5533 13.9555 13.6117 13.9922 13.675C14.0289 13.7383 14.0605 13.7983 14.0872 13.855C14.1205 13.9183 14.1522 13.9833 14.1822 14.05H14.1922C14.1855 13.9833 14.1789 13.9183 14.1722 13.855C14.1655 13.7983 14.1605 13.7383 14.1572 13.675C14.1572 13.6117 14.1572 13.5533 14.1572 13.5V11.66C14.1572 11.52 14.2272 11.45 14.3672 11.45H14.5922C14.7322 11.45 14.8022 11.52 14.8022 11.66V14.79C14.8022 14.93 14.7322 15 14.5922 15H14.3222C14.2089 15 14.1272 14.9533 14.0772 14.86L12.8122 12.955C12.7789 12.9017 12.7439 12.8433 12.7072 12.78C12.6739 12.7167 12.6439 12.6567 12.6172 12.6C12.5805 12.5367 12.5472 12.4717 12.5172 12.405H12.5072C12.5105 12.4717 12.5155 12.5367 12.5222 12.6C12.5289 12.6567 12.5339 12.7167 12.5372 12.78C12.5405 12.8433 12.5422 12.9017 12.5422 12.955V14.79C12.5422 14.93 12.4739 15 12.3372 15H12.1072C11.9705 15 11.9022 14.93 11.9022 14.79V11.66Z" fill="#475DA7"/>
<rect x="0.5" y="8.5" width="17" height="9" stroke="#475DA7"/>
</svg>
