<svg width="18" height="24" viewBox="0 0 18 24" fill="none" xmlns="http://www.w3.org/2000/svg">
<path fill-rule="evenodd" clip-rule="evenodd" d="M14.625 8H15.75C16.9875 8 18 9.02857 18 10.2857V21.7143C18 22.9714 16.9875 24 15.75 24H2.25C1.0125 24 0 22.9714 0 21.7143V10.2857C0 9.02857 1.0125 8 2.25 8H3.375V5.71429C3.375 2.56 5.895 0 9 0C12.105 0 14.625 2.56 14.625 5.71429V8ZM11.25 16C11.25 17.2571 10.2375 18.2857 9 18.2857C7.7625 18.2857 6.75 17.2571 6.75 16C6.75 14.7429 7.7625 13.7143 9 13.7143C10.2375 13.7143 11.25 14.7429 11.25 16ZM5.5125 5.71429C5.5125 3.76 7.07625 2.17143 9 2.17143C10.9237 2.17143 12.4875 3.76 12.4875 5.71429V8H5.5125V5.71429ZM2.25 21.7143H15.75V10.2857H2.25V21.7143Z" fill="#B3B8BD"/>
</svg>
