<svg xmlns="http://www.w3.org/2000/svg" viewBox="0 0 6.2 10.1" enable-background="new 0 0 6.2 10.1" xml:space="preserve">
  <path fill="inherit" d="M2.7 8.4c.4 0 .7.3.7.7s-.3.6-.7.6-.7-.3-.7-.6.3-.7.7-.7zm2.7-6.9c.7 1.2.3 2.6-.8 3.6l-.4.4c-.6.5-.8.8-.8 1.2V7.5H2v-.8c0-.9.4-1.5 1.6-2.5.8-.7 1-1.4.7-2-.3-.5-1.5-.7-2.6-.2h-.2l-.6.3-.5-1.2.6-.3c1.7-.7 3.7-.5 4.4.7z"/>
  <defs>
    <filter id="a" filterUnits="userSpaceOnUse" x="-5.3" y="-2.9" width="16" height="16">
      <feColorMatrix values="1 0 0 0 0 0 1 0 0 0 0 0 1 0 0 0 0 0 1 0"/>
    </filter>
  </defs>
  <mask maskUnits="userSpaceOnUse" x="-5.3" y="-2.9" width="16" height="16" id="b">
    <g filter="url(#a)">
     <path fill-rule="evenodd" clip-rule="evenodd" fill="inherit" d="M2.7-2.9c4.4 0 8 3.6 8 8s-3.6 8-8 8-8-3.6-8-8 3.6-8 8-8zm0 1.3a6.7 6.7 0 1 0 0 13.4 6.7 6.7 0 0 0 0-13.4zm0 10c.4 0 .7.3.7.7s-.3.6-.7.6-.7-.3-.7-.6.3-.7.7-.7zm2.7-6.9c.7 1.2.3 2.6-.8 3.6l-.4.4c-.6.5-.8.8-.8 1.2V7.5H2v-.8c0-.9.4-1.5 1.6-2.5.8-.7 1-1.4.7-2-.3-.5-1.5-.7-2.6-.2h-.2l-.6.3-.5-1.2.6-.3c1.7-.7 3.7-.5 4.4.7z"/>
    </g>
  </mask>
  <g mask="url(#b)">
    <path fill="none" d="M-5.3-2.9h16v16h-16z"/>
  </g>
</svg>