<svg xmlns="http://www.w3.org/2000/svg" xmlns:xlink="http://www.w3.org/1999/xlink"><path d="M12,0 C17.5202663,0 22,1.49324457 22,4 L22,4 L22,20 C22,22.5402768 17.5868833,24 12,24 C6.52266339,24 2.17351467,22.5969596 2.00506568,20.1481789 L2,20 L2,4 L2.00514101,3.8537164 C2.17607588,1.43526006 6.58797422,0 12,0 Z M12,16 C8.70211768,16 5.81322554,15.4913704 3.99960013,14.5520997 L4,20 C4,20.8366463 7.5171159,22 12,22 C16.378631,22 19.8358909,20.8901266 19.9943256,20.058882 L20,20 L20.000751,14.5519178 C18.1871473,15.4913048 15.2980952,16 12,16 Z M4,12 C4,12.8366463 7.5171159,14 12,14 C16.378631,14 19.8358909,12.8901266 19.9943256,12.058882 L20,12 L20.0011286,6.52711098 C18.1763026,7.47577408 15.2707986,8 12,8 C8.7298061,8 5.82477173,7.47596789 3.99988365,6.52763709 L4,12 Z M12,2 L11.6929681,2.00191586 C7.41460485,2.05528174 4,3.21181328 4,4 C4,4.80695307 7.5791408,6 12,6 C16.4208592,6 20,4.80695307 20,4 C20,3.19304693 16.4208592,2 12,2 L12,2 Z"></path></svg>