<svg xmlns="http://www.w3.org/2000/svg" xmlns:xlink="http://www.w3.org/1999/xlink"><path d="M12,0 C13.6570168,0 15,1.34344712 15,3 L15,3 L15,3.523 L15.2773976,3.62577548 C15.3888367,3.6693432 15.499323,3.71511119 15.6088093,3.76305425 L15.6088093,3.76305425 L15.872,3.884 L16.2428932,3.51489322 C17.3675565,2.3902299 19.1628135,2.34524337 20.3411243,3.37993362 L20.3411243,3.37993362 L20.4851068,3.51489322 C21.6566311,4.68641751 21.6566311,6.58558249 20.4851068,7.75710678 L20.4851068,7.75710678 L20.115,8.127 L20.2369457,8.39119069 C20.2848888,8.50067698 20.3306568,8.61116331 20.3742245,8.72260241 L20.3742245,8.72260241 L20.476,9 L21,9 C22.598096,9 23.9036905,10.2485197 23.9949089,11.8236843 L23.9949089,11.8236843 L24,12 C24,13.6570168 22.6565529,15 21,15 L21,15 L20.476,15 L20.3738837,15.2785815 C20.3302855,15.3901079 20.2844916,15.5006586 20.2365294,15.6101778 L20.2365294,15.6101778 L20.115,15.872 L20.4851068,16.2428932 C21.6097701,17.3675565 21.6547566,19.1628135 20.6200664,20.3411243 L20.6200664,20.3411243 L20.4851068,20.4851068 C19.3135825,21.6566311 17.4144175,21.6566311 16.2428932,20.4851068 L16.2428932,20.4851068 L15.872,20.115 L15.6088093,20.2369457 C15.499323,20.2848888 15.3888367,20.3306568 15.2773976,20.3742245 L15.2773976,20.3742245 L15,20.476 L15,21 C15,22.598096 13.7514803,23.9036905 12.1763157,23.9949089 L12.1763157,23.9949089 L12,24 C10.3429832,24 9,22.6565529 9,21 L9,21 L9,20.476 L8.72141852,20.3738837 C8.60989207,20.3302855 8.49934144,20.2844916 8.38982222,20.2365294 L8.38982222,20.2365294 L8.127,20.115 L7.75710678,20.4851068 C6.63244346,21.6097701 4.83718648,21.6547566 3.65887567,20.6200664 L3.65887567,20.6200664 L3.51489322,20.4851068 C2.34336893,19.3135825 2.34336893,17.4144175 3.51489322,16.2428932 L3.51489322,16.2428932 L3.884,15.872 L3.76305425,15.6088093 C3.71511119,15.499323 3.6693432,15.3888367 3.62577548,15.2773976 L3.62577548,15.2773976 L3.523,15 L3,15 C1.40190399,15 0.0963094688,13.7514803 0.00509110492,12.1763157 L0.00509110492,12.1763157 L0,12 C0,10.3429832 1.34344712,9 3,9 L3,9 L3.523,9 L3.62577548,8.72260241 C3.6693432,8.61116331 3.71511119,8.50067698 3.76305425,8.39119069 L3.76305425,8.39119069 L3.884,8.127 L3.51489322,7.75710678 C2.3902299,6.63244346 2.34524337,4.83718648 3.37993362,3.65887567 L3.37993362,3.65887567 L3.51489322,3.51489322 C4.68641751,2.34336893 6.58558249,2.34336893 7.75710678,3.51489322 L7.75710678,3.51489322 L8.127,3.884 L8.39119069,3.76305425 C8.50067698,3.71511119 8.61116331,3.6693432 8.72260241,3.62577548 L8.72260241,3.62577548 L9,3.523 L9,3 C9,1.40190399 10.2485197,0.0963094688 11.8236843,0.00509110492 L11.8236843,0.00509110492 Z M12,2 C11.4472847,2 11,2.44728475 11,3 L11,3 L11,5.0365983 L10.249998,5.23024634 C9.6143146,5.39437772 9.01052912,5.64485641 8.44990772,5.97541149 L8.44990772,5.97541149 L7.78263628,6.36884984 L6.34289322,4.92910678 C5.95241751,4.53863107 5.31958249,4.53863107 4.92910678,4.92910678 C4.53863107,5.31958249 4.53863107,5.95241751 4.92910678,6.34289322 L4.92910678,6.34289322 L6.36884984,7.78263628 L5.97541149,8.44990772 C5.64485641,9.01052912 5.39437772,9.6143146 5.23024634,10.249998 L5.23024634,10.249998 L5.0365983,11 L3,11 C2.44786203,11 2,11.4477074 2,12 C2,12.5527153 2.44728475,13 3,13 L3,13 L5.0365983,13 L5.23024634,13.750002 C5.39437772,14.3856854 5.64485641,14.9894709 5.97541149,15.5500923 L5.97541149,15.5500923 L6.36884984,16.2173637 L4.92910678,17.6571068 C4.53863107,18.0475825 4.53863107,18.6804175 4.92910678,19.0708932 C5.31958249,19.4613689 5.95241751,19.4613689 6.34289322,19.0708932 L6.34289322,19.0708932 L7.78302599,17.6307604 L8.45050087,18.0249385 C9.00890587,18.3547053 9.61339632,18.6053852 10.249998,18.7697537 L10.249998,18.7697537 L11,18.9634017 L11,21 C11,21.552138 11.4477074,22 12,22 C12.5527153,22 13,21.5527153 13,21 L13,21 L13,18.9634017 L13.750002,18.7697537 C14.3856854,18.6056223 14.9894709,18.3551436 15.5500923,18.0245885 L15.5500923,18.0245885 L16.2173637,17.6311502 L17.6571068,19.0708932 C18.0475825,19.4613689 18.6804175,19.4613689 19.0708932,19.0708932 C19.4613689,18.6804175 19.4613689,18.0475825 19.0708932,17.6571068 L19.0708932,17.6571068 L17.6307604,16.216974 L18.0249385,15.5494991 C18.3547053,14.9910941 18.6053852,14.3866037 18.7697537,13.750002 L18.7697537,13.750002 L18.9634017,13 L21,13 C21.552138,13 22,12.5522926 22,12 C22,11.4472847 21.5527153,11 21,11 L21,11 L18.9634017,11 L18.7697537,10.249998 C18.6056223,9.6143146 18.3551436,9.01052912 18.0245885,8.44990772 L18.0245885,8.44990772 L17.6311502,7.78263628 L19.0708932,6.34289322 C19.4613689,5.95241751 19.4613689,5.31958249 19.0708932,4.92910678 C18.6804175,4.53863107 18.0475825,4.53863107 17.6571068,4.92910678 L17.6571068,4.92910678 L16.2173637,6.36884984 L15.5500923,5.97541149 C14.9894709,5.64485641 14.3856854,5.39437772 13.750002,5.23024634 L13.750002,5.23024634 L13,5.0365983 L13,3 C13,2.44786203 12.5522926,2 12,2 Z M12,8 C14.209139,8 16,9.790861 16,12 C16,14.209139 14.209139,16 12,16 C9.790861,16 8,14.209139 8,12 C8,9.790861 9.790861,8 12,8 Z M12,10 C10.8954305,10 10,10.8954305 10,12 C10,13.1045695 10.8954305,14 12,14 C13.1045695,14 14,13.1045695 14,12 C14,10.8954305 13.1045695,10 12,10 Z"></path></svg>