<svg xmlns="http://www.w3.org/2000/svg" xml:space="preserve" stroke="inherit" style="enable-background:new 0 0 21 21" viewBox="0 0 21 21"><path d="M9.835.02c-.067.008-.296.032-.507.053-1.755.175-3.634.912-5.072 1.991-2.8 2.1-4.354 5.312-4.244 8.769.151 4.725 3.399 8.727 8.007 9.866 2.703.668 5.674.192 8.029-1.286a10.502 10.502 0 0 0 4.652-6.436c.225-.921.278-1.389.278-2.477 0-1.088-.053-1.556-.278-2.477-1.04-4.246-4.537-7.37-8.887-7.939C11.44.035 10.084-.008 9.835.02m1.51 1.626a8.794 8.794 0 0 1 4.143 1.488c1.898 1.276 3.276 3.334 3.723 5.564.135.669.161.968.161 1.802 0 1.252-.169 2.192-.582 3.236-1.055 2.661-3.302 4.663-6.033 5.373-.856.222-1.194.262-2.257.262-1.063 0-1.401-.04-2.257-.262a8.926 8.926 0 0 1-5.564-4.37 8.913 8.913 0 0 1 0-8.478 8.894 8.894 0 0 1 6.929-4.613 12.132 12.132 0 0 1 1.737-.002m-1.65 5.302v2.747H4.2v1.61h5.495V16.8h1.61v-5.495H16.8v-1.61h-5.495V4.2h-1.61v2.748" fill-rule="evenodd" stroke="none"/></svg>