<svg xmlns="http://www.w3.org/2000/svg" xmlns:xlink="http://www.w3.org/1999/xlink"><path d="M16.5562779,1.01681206 C17.3412833,0.95077776 18.1319289,1.07981681 18.8571872,1.39427652 L18.8571872,1.39427652 L20.0967396,1.93172544 L16.968201,5.0447198 L18.963699,7.03013492 L22.1455207,3.86245346 L22.6442409,5.19213243 C23.075825,6.34281441 23.1151599,7.60384655 22.7599063,8.76650254 C22.1274358,10.9493405 20.3389811,12.6029662 18.0616204,13.0719048 C17.2742261,13.1880056 16.4745376,13.1703475 15.6959917,13.0212567 L15.6959917,13.0212567 L15.6106757,13.0028796 L8.00581243,21.551533 C7.34216871,22.3691645 6.3803862,22.8837337 5.33851664,22.9859079 L5.33851664,22.9859079 L5.11411252,23.0014504 C3.98675745,23.0472034 2.89412626,22.6061642 2.09269152,21.7670852 L2.09269152,21.7670852 L1.94427368,21.5998964 C1.29739756,20.826996 0.961381281,19.839751 1.00353598,18.8311227 C1.04930114,17.7361075 1.53683795,16.7063725 2.35891658,15.9733822 L2.35891658,15.9733822 L8.758,10.333 L6.709,8.284 L4.7843054,8.9258331 L1.16901406,5.31054177 L5.03187801,1.44767782 L8.64716934,5.06296916 L8.005,6.988 L10.136,9.119 L10.9432086,8.40874264 L10.9086287,8.26927941 C10.8511416,8.00667175 10.81624,7.74195666 10.8044803,7.48065868 L10.8044803,7.48065868 L10.7993105,7.00329589 C10.837853,3.89873831 13.2266106,1.30830572 16.3434468,1.04058724 L16.3434468,1.04058724 Z M19.3312666,13.4554978 L21.7601958,15.8844944 C22.5520278,16.6603282 22.9982443,17.7222322 22.9982443,18.8307971 C22.9982443,19.9393619 22.5520278,21.0012659 21.7734241,21.7638713 C20.9975904,22.5557034 19.9356864,23.0019198 18.8271215,23.0019198 C17.792461,23.0019198 16.7984473,22.6132157 16.0450791,21.9230047 L15.8873993,21.7705192 L12.5351948,18.4183147 L13.8315018,17.1220077 L17.1902868,20.4808601 C17.6213055,20.9207668 18.2112522,21.1686648 18.8271215,21.1686648 C19.4429909,21.1686648 20.0329376,20.9207668 20.4771846,20.4676318 C20.9170913,20.0366131 21.1649893,19.4466664 21.1649893,18.8307971 C21.1649893,18.2765146 20.9641919,17.7432296 20.5984942,17.3231056 L20.4705367,17.1873819 L18.0349596,14.7518048 L19.3312666,13.4554978 Z M16.5658015,2.8594799 L16.3054183,2.88834979 C14.1771928,3.16961144 12.5835906,5.01270499 12.633387,7.21202108 C12.6281119,7.60477758 12.7011385,7.99464935 12.8482028,8.35887128 L12.8482028,8.35887128 L13.0912197,8.96073157 L3.57491426,17.3452947 C3.12712616,17.7445679 2.86024417,18.308254 2.83519191,18.9076751 C2.81211649,19.4597967 2.9960635,20.0002489 3.33147873,20.4017008 L3.33147873,20.4017008 L3.43952065,20.5237638 C3.85546876,20.9588287 4.43835832,21.1941114 5.03977213,21.1697033 C5.64118595,21.1452953 6.2030923,20.8635518 6.60922674,20.364664 L6.60922674,20.364664 L14.9935392,10.9387982 L15.5505876,11.102182 C16.2784058,11.315653 17.0438344,11.3689002 17.7424614,11.2674102 C19.3023279,10.9451599 20.5557977,9.78618742 21.0028513,8.24361997 C21.0685747,8.02846327 21.1144097,7.80902855 21.1404397,7.58798506 L21.1404397,7.58798506 L21.1526054,7.43711751 L18.9649605,9.6167253 L14.3698273,5.04587791 L16.5658015,2.8594799 Z M5.03187801,4.04101271 L3.76234895,5.31054177 L5.27936743,6.82756024 L6.23174337,6.51040714 L6.54889648,5.55803119 L5.03187801,4.04101271 Z"></path></svg>