<svg width="24" height="24" viewBox="0 0 24 24" xmlns="http://www.w3.org/2000/svg">
<path d="M3.81399 2.00616L4 2C5.57409 2 6.87666 3.21516 6.99384 4.81399L7 5C7 6.57409 5.78484 7.87666 4.18601 7.99384L4 8C2.42591 8 1.12334 6.78484 1.00616 5.18601L1 5C1 3.42591 2.21516 2.12334 3.81399 2.00616ZM4 4L3.9242 4.00278C3.40508 4.04105 3 4.47526 2.99933 4.9633L3.00278 5.0758C3.04105 5.59492 3.47526 6 3.9633 6.00067L4.0758 5.99722C4.59492 5.95895 5 5.52474 5.00067 5.0367L4.99722 4.9242C4.95895 4.40508 4.52474 4 4 4Z" />
<path d="M5 9V11H3C2.48676 11 2.06444 11.3857 2.00672 11.8833L2 12V16H4V20H7V22H2V18H0V12C0 10.4019 1.24852 9.09631 2.82368 9.00509L3 9H5Z" />
<path d="M20 2L20.2228 2.00819C21.7848 2.12334 23 3.42591 22.9993 5.0367L22.9918 5.22284C22.8767 6.78484 21.5741 8 19.9633 7.99933L19.7772 7.99181C18.2152 7.87666 17 6.57409 17.0007 4.9633L17.0082 4.77716C17.1233 3.21516 18.4259 2 20 2ZM19.997 4L19.8807 4.00704C19.4108 4.06278 19.0383 4.44218 19.0048 4.88738L19 5C19 5.52474 19.4051 5.95895 19.8874 5.99519L20 6C20.5247 6 20.959 5.59492 20.9952 5.11262L21 5C21 4.47526 20.5949 4.04105 20.1126 4.00481L19.997 4Z" />
<path d="M21 9C22.5981 9 23.9037 10.2485 23.9949 11.8237L24 12V18H22V22H17V20H20V16H22V12C22 11.4868 21.6143 11.0644 21.1167 11.0067L21 11H19V9H21Z"/>
<path d="M11.7948 0.00550908L12 0C14.1219 0 15.871 1.65628 15.9945 3.79484L16 4C16 6.12191 14.3437 7.87102 12.2052 7.99449L12 8C9.87809 8 8.12898 6.34372 8.00551 4.20516L8 4C8 1.87809 9.65628 0.128977 11.7948 0.00550908ZM12 2L11.8815 2.00342C10.8283 2.06443 10 2.9392 9.99958 3.97113L10.0034 4.11845C10.0644 5.17166 10.9392 6 11.9711 6.00042L12.1185 5.99658C13.1717 5.93557 14 5.0608 14.0004 4.02887L13.9966 3.88155C13.9356 2.82834 13.0608 2 12 2Z" />
<path d="M9 9H15C16.6573 9 18 10.3427 18 12V19H16V24H8V18H6V12C6 10.3427 7.34272 9 9 9ZM15.1167 11.0067L15 11H9C8.44728 11 8 11.4473 8 12V16H10V22H14V17H16V12C16 11.4868 15.6143 11.0644 15.1167 11.0067Z" />
</svg>
