<svg xmlns="http://www.w3.org/2000/svg" xmlns:xlink="http://www.w3.org/1999/xlink"><path d="M15,14 C18.8662847,14 22,17.1337153 22,21 L22,21 L22,22.7299524 L21.3047757,22.9524241 C20.9355748,23.0705684 20.2938784,23.2312573 19.386873,23.396386 L19.386873,23.396386 L18.8658743,23.4866675 C16.9181395,23.8079433 14.6254626,24 12,24 C9.37453739,24 7.0818605,23.8079433 5.13412573,23.4866675 C3.94847381,23.291096 3.13155266,23.0920492 2.69522427,22.9524241 L2.69522427,22.9524241 L2,22.7299524 L2,21 C2,17.1337153 5.13371525,14 9,14 L9,14 Z M15,16 L9,16 C6.23828475,16 4,18.2382847 4,21 L4,21 L4,21.228 L4.57020219,21.3512636 C4.75277737,21.3879968 4.94542864,21.4243952 5.14810271,21.4601712 L5.14810271,21.4601712 L5.45962427,21.5133325 C7.300952,21.8170567 9.48483761,22 12,22 C14.5151624,22 16.699048,21.8170567 18.5403757,21.5133325 C18.9657429,21.4431689 19.3511253,21.3699409 19.6960969,21.2959486 L19.6960969,21.2959486 L20,21.227 L20,21 C20,18.3109615 17.8779697,16.1181669 15.2169114,16.0046189 L15.2169114,16.0046189 L15,16 Z M12,0 C15.3132847,0 18,2.68671525 18,6 C18,9.4578902 15.2246636,13 12,13 C8.77533638,13 6,9.4578902 6,6 C6,2.68671525 8.68671525,0 12,0 Z M12,2 C9.79128475,2 8,3.79128475 8,6 C8,8.44551607 10.0015055,11 12,11 C13.9984945,11 16,8.44551607 16,6 C16,3.79128475 14.2087153,2 12,2 Z"></path></svg>