<svg width="24" height="24" viewBox="0 0 24 24" fill="inherit" xmlns="http://www.w3.org/2000/svg">
<path fill-rule="evenodd" clip-rule="evenodd" d="M17 0H7V4H0V6H7H9H15H17H24V4H17V0ZM15 4V2H9V4H15ZM5 8V21C5 21.5128 5.38604 21.9355 5.88338 21.9933L6 22H18C18.5128 22 18.9355 21.614 18.9933 21.1166L19 21V8H21V21C21 22.5977 19.7511 23.9037 18.1763 23.9949L18 24H6C4.40232 24 3.09634 22.7511 3.00509 21.1763L3 21V8H5ZM15 10.5708L16.4142 11.985L13.4142 14.985L16.4142 17.985L15 19.3992L12 16.3992L9 19.3992L7.58579 17.985L10.5858 14.985L7.58579 11.985L9 10.5708L12 13.5708L15 10.5708Z" fill="inherit"/>
</svg>
